<svg width="15" height="17" viewBox="0 0 15 17" fill="none" xmlns="http://www.w3.org/2000/svg">
<path d="M13.0501 16.1872C12.8997 16.1872 12.7463 16.1632 12.5959 16.1125C11.85 15.8617 11.4485 15.0537 11.6993 14.3077C11.9985 13.418 12.1501 12.4857 12.1501 11.5367C12.1501 6.74671 8.25316 2.84973 3.46321 2.84973C2.8727 2.84973 2.28315 2.90901 1.71089 3.02623C0.940081 3.18469 0.186939 2.6869 0.0292439 1.91591C-0.128642 1.14491 0.368576 0.391956 1.13957 0.234261C1.89936 0.0788452 2.68119 0 3.46321 0C9.82461 0 15.0001 5.17546 15.0001 11.5369C15.0001 12.7952 14.7983 14.0332 14.4006 15.2161C14.2004 15.8114 13.6452 16.1872 13.0501 16.1872Z" fill="#BA7894"/>
</svg>
