<svg width="26" height="94" viewBox="0 0 26 94" fill="none" xmlns="http://www.w3.org/2000/svg">
<path d="M25.6295 92.2434C18.4643 92.2434 12.7855 86.1971 13.2344 79.0459L13.9699 67.3248C14.1816 63.9545 14.0509 60.5798 13.5912 57.2499L12.1315 51.2581C11.943 50.485 12.0107 49.6719 12.3241 48.9406C13.394 46.4445 15.8705 40.6667 15.8705 40.6667C17.2736 37.3922 16.145 33.5745 13.1869 31.5892L12.9251 31.4134C11.6982 30.59 10.2706 30.1548 8.79667 30.1548H8.78243C7.98667 30.1555 7.32636 29.5349 7.28153 28.7403C7.06535 24.9215 7.20194 21.0795 7.69774 17.2629L8.08887 14.252C8.25376 12.9823 8.22869 11.6949 8.01403 10.4326C7.81533 9.26337 7.45611 8.12721 6.94662 7.05619L6.67859 6.49295C5.63531 4.29964 6.1106 1.91333 7.49999 0.273944C6.92098 0.0887304 6.29828 -0.0085306 5.65298 0.000587631C1.44473 0.0598561 -1.23451 4.55096 0.573175 8.35155L0.792582 8.81278C1.30206 9.8838 1.66128 11.02 1.85999 12.1892C2.07445 13.4515 2.09972 14.7389 1.93483 16.0086L1.5437 19.0195C0.974756 23.3987 0.878065 27.8117 1.24526 32.1845L3.81167 44.1239L7.4373 59.0067C7.8972 62.3366 8.0277 65.7113 7.81608 69.0816L7.08055 80.8027C6.63167 87.9537 12.3106 94 19.4756 94C21.7846 94 23.9766 93.3608 25.8536 92.2375C25.7807 92.2387 25.7026 92.2434 25.6295 92.2434Z" fill="white"/>
</svg>
