<svg width="126" height="96" viewBox="0 0 126 96" fill="none" xmlns="http://www.w3.org/2000/svg">
<circle cx="48" cy="48" r="48" fill="#F7E5C1" fill-opacity="0.5"/>
<path d="M69.1287 62.1707H39.3687V35.2352C39.3687 27.9115 45.3068 21.9733 52.6305 21.9733H57.6433L61.356 34.9691L69.1287 62.1707Z" fill="white"/>
<path d="M69.1287 62.1707H39.3687V55.9251L61.3562 34.9691L69.1287 62.1707Z" fill="white"/>
<path d="M104.297 52.1617L86.9198 37.8247H70.3602L52.9829 52.1617C48.8954 55.5343 51.28 62.1716 56.5792 62.1716H78.6402L78.64 62.1707H78.6408L78.6406 62.1716H100.702C106 62.1716 108.385 55.5341 104.297 52.1617Z" fill="white"/>
<path d="M117.47 75.7611H38.5301C34.7771 75.7611 31.7349 72.7187 31.7349 68.9659C31.7349 65.2129 34.7772 62.1707 38.5301 62.1707H117.47C121.223 62.1707 124.265 65.2131 124.265 68.9659C124.265 72.7189 121.223 75.7611 117.47 75.7611Z" fill="white"/>
<path d="M124.265 68.9657C124.265 70.8418 123.504 72.5421 122.276 73.7704C121.045 75.0009 119.347 75.762 117.469 75.762H38.5289C34.7769 75.762 31.7349 72.7178 31.7349 68.9657C31.7349 67.7282 32.0656 66.5693 32.6463 65.5699C33.8191 67.6009 36.0144 68.9657 38.5289 68.9657H117.469C119.347 68.9657 121.045 68.2046 122.276 66.9763C122.694 66.5576 123.057 66.0857 123.354 65.5699C123.934 66.5693 124.265 67.7282 124.265 68.9657Z" fill="white"/>
<path d="M48.0632 75.761H40.2268V92.8815H48.0632V75.761Z" fill="white"/>
<path d="M115.775 75.761H107.938V92.8815H115.775V75.761Z" fill="white"/>
<path d="M78.6407 56.5626C85.7639 56.5626 91.5384 50.788 91.5384 43.6648C91.5384 36.5416 85.7639 30.7671 78.6407 30.7671C71.5174 30.7671 65.7429 36.5416 65.7429 43.6648C65.7429 50.788 71.5174 56.5626 78.6407 56.5626Z" fill="white"/>
<path d="M91.5371 43.6648C91.5371 50.7896 85.7632 56.5635 78.6406 56.5635C71.5158 56.5635 65.7419 50.7896 65.7419 43.6648C65.7419 42.6124 65.8668 41.5898 66.1074 40.6114C67.4791 46.2604 72.5683 50.4542 78.6406 50.4542C84.7106 50.4542 89.7997 46.2602 91.1714 40.6114C91.4122 41.5898 91.5371 42.6122 91.5371 43.6648Z" fill="white"/>
<path d="M54.2891 28.9146C61.4123 28.9146 67.1869 23.14 67.1869 16.0168C67.1869 8.89357 61.4123 3.11905 54.2891 3.11905C47.1659 3.11905 41.3914 8.89357 41.3914 16.0168C41.3914 23.14 47.1659 28.9146 54.2891 28.9146Z" fill="white"/>
<path d="M126 68.9659C126 64.2622 122.174 60.4357 117.47 60.4357H106.965C107.237 59.9953 107.47 59.5226 107.652 59.0171C108.718 56.0479 107.835 52.8315 105.401 50.8234L92.9321 40.5356C91.4944 33.9669 85.6341 29.0334 78.6401 29.0334C71.9173 29.0334 66.2426 33.5921 64.5354 39.7796L61.3988 28.8C65.8821 26.2967 68.9222 21.5061 68.9222 16.0168C68.9222 7.9485 62.3582 1.38412 54.2895 1.38412C46.2208 1.38412 39.6564 7.94794 39.6564 16.0162C39.6564 19.1237 40.6331 22.0059 42.2914 24.378C39.318 27.2027 37.6337 31.0845 37.6337 35.2352V60.4832C33.3501 60.9326 30 64.5654 30 68.9662C30 73.6566 33.8055 77.4742 38.4913 77.4954V82.5382C38.4913 83.4964 39.2681 84.2732 40.2262 84.2732C41.1844 84.2732 41.9612 83.4964 41.9612 82.5382V77.496H46.3277V91.1458H41.9612V90.7948C41.9612 89.8367 41.1844 89.0599 40.2262 89.0599C39.2681 89.0599 38.4913 89.8367 38.4913 90.7948V92.8809C38.4913 93.8391 39.2681 94.6159 40.2262 94.6159H48.0626C49.0208 94.6159 49.7976 93.8391 49.7976 92.8809V91.2519L77.694 77.6902L106.043 91.4719C106.095 91.4976 106.149 91.5187 106.203 91.5388V92.8809C106.203 93.8391 106.979 94.6159 107.938 94.6159H115.774C116.732 94.6159 117.509 93.8391 117.509 92.8809V77.4951C122.194 77.4739 126 73.6564 126 68.9659ZM104.386 57.8437C103.936 59.0968 102.731 60.4357 100.7 60.4357H80.3749V58.1921C83.0976 57.8687 85.5919 56.7958 87.6478 55.1846C87.7926 55.2236 87.9441 55.2467 88.1012 55.2467H94.4241C95.3822 55.2467 96.159 54.4699 96.159 53.5117C96.159 52.5536 95.3822 51.7768 94.4241 51.7768H90.8119C92.0887 49.8667 92.928 47.6411 93.1864 45.2437L103.193 53.4997C104.759 54.792 104.836 56.5909 104.386 57.8437ZM52.8932 57.8437C52.443 56.5909 52.5201 54.7918 54.0864 53.4997L64.0939 45.243C64.3521 47.6407 65.1913 49.8666 66.4684 51.7768H62.8562C61.8981 51.7768 61.1213 52.5536 61.1213 53.5117C61.1213 54.4699 61.8981 55.2467 62.8562 55.2467H68.8472C69.0906 55.2467 69.3219 55.1963 69.5319 55.1059C71.6064 56.7609 74.1381 57.8638 76.9052 58.1925V60.4361H56.5793C54.5483 60.4357 53.3436 59.097 52.8932 57.8437ZM78.6401 32.5031C84.7952 32.5031 89.8029 37.5107 89.8029 43.6659C89.8029 49.8212 84.7954 54.8288 78.6401 54.8288C72.4849 54.8288 67.4773 49.8212 67.4773 43.6659C67.4773 37.5107 72.4851 32.5031 78.6401 32.5031ZM54.2891 4.85344C60.4442 4.85344 65.4519 9.861 65.4519 16.0162C65.4519 22.1715 60.4442 27.1791 54.2891 27.1791C48.1341 27.1791 43.1263 22.1717 43.1263 16.0162C43.1263 9.86081 48.1341 4.85344 54.2891 4.85344ZM44.6001 26.9683C47.1831 29.2562 50.5757 30.6489 54.2891 30.6489C55.632 30.6489 56.9316 30.4635 58.1677 30.1232L61.7541 42.6748L56.4789 47.0269L53.8153 39.0081C53.5133 38.0987 52.5309 37.6063 51.6219 37.9086C50.7126 38.2106 50.2204 39.1926 50.5224 40.1019L53.6094 49.3948L51.8783 50.8232C49.4445 52.8315 48.561 56.0477 49.6279 59.0171C49.8094 59.5228 50.0428 59.9953 50.3149 60.4357H41.1036V35.2352C41.1036 32.0841 42.366 29.1332 44.6001 26.9683ZM49.7976 77.496H70.1572L49.7976 87.3937V77.496ZM109.672 91.1462V77.4962H114.039V91.146H109.672V91.1462ZM117.47 74.0261H102.636C101.678 74.0261 100.901 74.8029 100.901 75.7611C100.901 76.7192 101.678 77.496 102.636 77.496H106.203V87.6915L85.2309 77.496H93.2741C94.2323 77.496 95.0091 76.7192 95.0091 75.7611C95.0091 74.8029 94.2323 74.0261 93.2741 74.0261H38.5301C35.7399 74.0261 33.4699 71.7561 33.4699 68.9659C33.4699 66.1757 35.7399 63.9056 38.5301 63.9056H56.5793H100.7H117.47C120.26 63.9056 122.53 66.1757 122.53 68.9659C122.53 71.7561 120.26 74.0261 117.47 74.0261Z" fill="#BA7894"/>
</svg>
