<svg width="18" height="18" viewBox="0 0 18 18" fill="none" xmlns="http://www.w3.org/2000/svg">
<path d="M1.48976 17.991C1.18168 17.991 0.871018 17.8958 0.604283 17.6986C-0.0575862 17.2091 -0.197314 16.2755 0.292429 15.6136L6.34943 7.42534C6.4977 7.22499 6.69368 7.06519 6.91967 6.96004L9.00446 5.99109C11.5361 4.81443 13.7047 2.96875 15.2757 0.653799C15.7382 -0.0275483 16.6652 -0.204847 17.3462 0.257269C18.0275 0.719584 18.2048 1.6466 17.7425 2.32775C15.8686 5.08912 13.2816 7.29058 10.2608 8.69461L8.52048 9.50357L2.68927 17.3866C2.3969 17.7819 1.94631 17.991 1.48976 17.991Z" fill="#BA7894"/>
</svg>
