<svg width="35" height="46" viewBox="0 0 35 46" fill="none" xmlns="http://www.w3.org/2000/svg">
<path d="M32.9763 15.613L32.7125 15.4358C30.9823 14.2745 28.6323 14.7991 27.5601 16.5861L24.5314 21.6338C24.217 22.1579 23.6507 22.4784 23.0396 22.4784H20.844C19.991 22.4784 19.264 21.86 19.127 21.0183L17.2661 9.59061C17.1697 8.99846 17.3356 8.39368 17.7207 7.93354L19.0089 6.39451L15.3171 0L7.47043 6.64878C5.64308 8.19718 4.58944 10.4711 4.58944 12.8661V28.221C4.58944 28.7045 4.47293 29.1809 4.25003 29.6098L0.309091 37.1887C-0.41527 38.5817 0.179754 40.2971 1.61126 40.9423L12.297 45.7584C13.47 46.287 14.853 45.9262 15.6183 44.8918L20.1376 38.7824L22.1444 37.8497C25.7884 36.1561 28.679 33.1767 30.2616 29.4832L34.2944 20.0717C34.9841 18.4616 34.4306 16.5889 32.9763 15.613Z" fill="white"/>
</svg>
