<svg width="34" height="47" viewBox="0 0 34 47" fill="none" xmlns="http://www.w3.org/2000/svg">
<path d="M33.6847 37.7963L29.8488 30.4198C29.6291 29.9972 29.5144 29.5278 29.5144 29.0515V12.6355C29.5144 11.0924 28.8389 9.62692 27.6655 8.6247L17.5676 0L13.2665 5.10873L16.6117 9.10535C16.9693 9.53267 17.1235 10.0944 17.0339 10.6444L15.2148 21.816C15.0666 22.7259 14.2808 23.3941 13.3589 23.3941H11.4315C10.7711 23.3941 10.159 23.0476 9.81917 22.4812L6.97405 17.7391C5.86873 15.897 3.44621 15.3562 1.6625 16.5533C0.163417 17.5595 -0.407154 19.49 0.303842 21.1493L4.19736 30.2362C5.77279 33.9128 8.64994 36.8783 12.2771 38.5642L14.1964 39.4563L18.6028 45.4131C19.3835 46.4685 20.7946 46.8368 21.9915 46.2973L32.3558 41.6261C33.8166 40.9679 34.4237 39.2175 33.6847 37.7963Z" fill="white"/>
</svg>
