<svg width="37" height="94" viewBox="0 0 37 94" fill="none" xmlns="http://www.w3.org/2000/svg">
<path d="M32.8431 78.6928C32.6989 79.5582 32.531 80.4207 32.3333 81.2778L31.619 84.3732C30.3185 90.0083 25.3008 94 19.5176 94C12.3526 94 6.67362 87.9537 7.1225 80.8025L7.85804 69.0814C8.06966 65.7111 7.93896 62.3364 7.47925 59.0065L3.85362 44.1237L1.28721 32.1843C0.920015 27.8115 1.01671 23.3985 1.58565 19.0193L1.97678 16.0084C2.14167 14.7387 2.11659 13.4513 1.90194 12.189C1.70323 11.0198 1.34401 9.88359 0.834533 8.81258L0.566496 8.24934C-1.25487 4.42025 1.5374 0 5.77775 0C9.17961 0 11.8433 2.92771 11.5226 6.31456L11.447 7.11222C11.3336 8.30993 11.5302 9.51677 12.0179 10.6167C12.9793 12.7855 14.9718 14.3213 17.3138 14.6993L24.7213 15.8946C32.8298 17.2029 38.2301 24.9836 36.6196 33.0376L33.7179 47.5491L32.8431 78.6928Z" fill="white"/>
</svg>
