<svg width="126" height="96" viewBox="0 0 126 96" fill="none" xmlns="http://www.w3.org/2000/svg">
<circle cx="48" cy="48" r="48" fill="#F7E5C1" fill-opacity="0.5"/>
<path d="M64.5 19.5C68.6421 19.5 72 16.1421 72 12C72 7.85786 68.6421 4.5 64.5 4.5C60.3579 4.5 57 7.85786 57 12C57 16.1421 60.3579 19.5 64.5 19.5Z" fill="white"/>
<path d="M109.996 46.1211C107.827 42.6336 103.921 40.5 99.7057 40.5H56.4639C52.1575 40.5 48.1814 42.7262 46.0449 46.3335L40.0713 56.4187L40.4999 63H115.5V54.9722L109.996 46.1211Z" fill="white"/>
<path d="M46.2188 68.9981H67.5L76.5 65.9347L111 69H114.155C118.212 69 121.5 65.6422 121.5 61.5C121.5 57.2355 118.022 53.829 113.85 54.0065L46.2188 59.808V68.9981Z" fill="white"/>
<path d="M90.7353 30.1974L89.5467 30.7562L85.0762 21.2477L86.2647 20.6887C87.2104 20.2441 88.294 20.1934 89.2771 20.5477C90.2602 20.902 91.0622 21.6323 91.5069 22.578L92.6249 24.9551C92.8451 25.4234 92.9708 25.9305 92.995 26.4474C93.0192 26.9642 92.9413 27.4808 92.7658 27.9676C92.5904 28.4544 92.3207 28.9019 91.9723 29.2845C91.6239 29.6671 91.2036 29.9773 90.7353 30.1974Z" fill="white"/>
<path d="M62.2098 43.6093L63.3984 43.0504L58.9276 33.5419L57.739 34.1006C56.7933 34.5453 56.063 35.3474 55.7087 36.3305C55.3544 37.3136 55.4052 38.3972 55.8498 39.3429L56.9675 41.7201C57.4121 42.6658 58.2142 43.3961 59.1974 43.7504C60.1805 44.1047 61.2641 44.0539 62.2098 43.6093Z" fill="white"/>
<path d="M90.3907 43.125C91.2986 38.1566 90.7356 33.0312 88.771 28.3783L85.1305 19.7569C84.3372 17.878 83.1725 16.1787 81.7062 14.7611C80.24 13.3434 78.5025 12.2365 76.598 11.5068C74.6935 10.7772 72.6612 10.4398 70.6231 10.5148C68.5849 10.5899 66.583 11.0759 64.7373 11.9438C62.8916 12.8115 61.2402 14.0432 59.8822 15.565C58.5243 17.0867 57.4877 18.867 56.8347 20.7992C56.1817 22.7314 55.9258 24.7755 56.0822 26.8091C56.2387 28.8426 56.8043 30.8235 57.7452 32.6331L62.0626 40.9363C64.3926 45.4175 67.9806 49.1206 72.386 51.5908C74.4233 52.7333 76.7092 53.36 79.0443 53.4163C80.675 53.4557 82.2924 53.1149 83.7686 52.4209C85.2447 51.7268 86.539 50.6986 87.5489 49.4177C88.9952 47.5833 89.9708 45.4229 90.3907 43.125Z" fill="white"/>
<path d="M90.39 43.125C89.9714 45.423 88.9961 47.5835 87.5494 49.4175C86.5657 50.6652 85.3119 51.6736 83.8823 52.367C82.4527 53.0603 80.8845 53.4206 79.2957 53.4206C79.2113 53.4206 79.1288 53.4188 79.0444 53.4169C76.7094 53.3597 74.4237 52.7328 72.3863 51.5906C67.9806 49.121 64.3924 45.4181 62.0626 40.9369L57.8044 32.7487V32.7469L57.7444 32.6325C56.8037 30.8229 56.2382 28.842 56.0819 26.8085C55.9256 24.775 56.1816 22.7309 56.8347 20.7987C57.4878 18.8666 58.5244 17.0864 59.8824 15.5647C61.2404 14.0431 62.8918 12.8115 64.7375 11.9437C66.5832 11.076 68.5851 10.59 70.6232 10.515C72.6613 10.4399 74.6936 10.7773 76.5981 11.507C78.5026 12.2367 80.2401 13.3435 81.7063 14.7612C83.1725 16.1788 84.3373 17.878 85.1307 19.7569L85.1982 19.9162L88.7719 28.3781C90.736 33.0312 91.2984 38.1567 90.39 43.125Z" fill="white"/>
<path d="M85.1981 19.9162C83.4131 17.8312 81.6468 16.3781 79.8318 15.48C78.9316 15.0299 77.973 14.7074 76.9837 14.5219C76.0314 14.3502 75.0609 14.3017 74.0962 14.3775C72.9892 14.469 71.8953 14.6803 70.8337 15.0075C69.9614 15.2735 69.1051 15.589 68.2687 15.9525C67.8731 16.1212 67.47 16.305 67.0631 16.5C66.5437 16.75 66.0462 17.0062 65.5706 17.2687C64.5937 17.8035 63.6591 18.4122 62.775 19.0894C61.9586 19.7147 61.205 20.418 60.525 21.1894C60.0001 21.785 59.533 22.4291 59.13 23.1131C58.6165 23.9796 58.2181 24.9093 57.945 25.8787C57.3618 27.9375 57.3168 30.2194 57.8043 32.7469L57.7443 32.6325C56.6205 30.4806 56.0332 28.089 56.0325 25.6612C56.0325 25.515 56.0343 25.3687 56.04 25.2244C56.1018 23.1012 56.6076 21.0145 57.525 19.0987C57.9588 18.1924 58.4813 17.3313 59.085 16.5281C60.2429 14.9905 61.6853 13.6895 63.3337 12.6956C63.7886 12.421 64.2573 12.17 64.7381 11.9437C65.1693 11.7412 65.6043 11.5612 66.0431 11.4037C68.8957 10.3702 71.9936 10.2206 74.9325 10.9744C75.9573 11.2382 76.952 11.6077 77.9006 12.0769C81.1552 13.6849 83.7218 16.4112 85.1306 19.7569L85.1981 19.9162Z" fill="white"/>
<path d="M41.4729 68.9981H46.5L75 58.5L96 55.5L90 51H73.5L47.9387 53.5558C44.9887 53.8509 42.0806 54.4728 39.2679 55.4102C37.8796 55.873 36.672 56.7608 35.8163 57.948C34.9606 59.1352 34.5001 60.5615 34.5 62.025C34.5 62.9407 34.6803 63.8475 35.0307 64.6935C35.3811 65.5395 35.8948 66.3082 36.5423 66.9557C37.1898 67.6032 37.9585 68.1169 38.8045 68.4673C39.6505 68.8178 40.5572 68.9981 41.4729 68.9981Z" fill="white"/>
<path d="M117 69H39C36.5147 69 34.5 71.0147 34.5 73.5V79.5C34.5 81.9853 36.5147 84 39 84H117C119.485 84 121.5 81.9853 121.5 79.5V73.5C121.5 71.0147 119.485 69 117 69Z" fill="#EBEBE9"/>
<path d="M50.9541 83.6782L49.5698 83.7756L50.041 88.6296C50.2068 90.3358 51.787 91.6168 53.5709 91.4915C55.3548 91.3663 56.6665 89.8817 56.5009 88.1756C56.2407 85.4949 53.7573 83.4814 50.9541 83.6782Z" fill="white"/>
<path d="M50.1199 84.9907L49.5699 83.7742L44.8884 85.5947C43.2429 86.2346 42.4837 88.0241 43.1925 89.5918C43.9012 91.1595 45.8096 91.9117 47.4549 91.2718C50.0405 90.2664 51.2336 87.4543 50.1199 84.9907Z" fill="white"/>
<path d="M46.146 80.0269C45.5735 79.42 44.7936 79.0507 43.9613 78.9925C43.129 78.9342 42.3053 79.1912 41.6538 79.7124L41.6058 79.7516C41.2916 79.9978 41.0319 80.3065 40.8431 80.6582C40.6544 81.0099 40.5408 81.397 40.5094 81.795C40.478 82.1929 40.5297 82.593 40.661 82.97C40.7923 83.3469 41.0005 83.6925 41.2723 83.9848L41.4317 84.159C43.236 86.1326 46.3965 86.3539 48.4903 84.6533L49.5725 83.7744L46.146 80.0269Z" fill="white"/>
<path d="M51.0387 75.4607C49.498 74.5684 47.5079 75.0116 46.5934 76.4509C45.1563 78.7121 45.9537 81.6821 48.3747 83.084L49.57 83.7765L52.1721 79.6819C53.0866 78.2437 52.579 76.3528 51.0387 75.4607Z" fill="white"/>
<path d="M55.9688 78.9675C53.2223 78.333 50.4938 79.9132 49.875 82.4972L49.5696 83.7733H49.5739L50.9539 83.6773C52.3564 83.5799 53.7407 84.0396 54.8063 84.9566C56.4611 85.2065 58.0459 84.2364 58.4198 82.6753C58.8137 81.0317 57.7161 79.3714 55.9688 78.9675Z" fill="white"/>
<path d="M117 69H98.5875C86.292 76.8669 70.4895 81.4365 58.2456 84H117C118.194 84 119.338 83.5259 120.182 82.682C121.026 81.8381 121.5 80.6935 121.5 79.5V73.5C121.5 72.3065 121.026 71.1619 120.182 70.318C119.338 69.4741 118.194 69 117 69Z" fill="#E0E0DE"/>
<path d="M123 61.5C123.011 59.4363 122.306 57.4325 121.006 55.8302C119.705 54.2279 117.889 53.1261 115.867 52.7126L111.268 45.3324C108.838 41.4259 104.407 39 99.7046 39H92.2704C92.3267 36.485 92.03 33.9746 91.3892 31.542C92.6883 30.9251 93.6902 29.8189 94.176 28.4653C94.6618 27.1117 94.5918 25.6209 93.9814 24.3187L92.8594 21.9399C92.3084 20.7732 91.3598 19.8409 90.1836 19.3104C89.0074 18.7798 87.6807 18.6857 86.4414 19.0449C85.1164 15.9555 82.881 13.3434 80.0332 11.5571C78.1153 10.3353 75.9608 9.53257 73.7109 9.20156C73.491 9.16406 73.2347 9.15937 73.0018 9.13349C72.6 7.9158 71.942 6.79832 71.0721 5.85627C70.2021 4.91422 69.1405 4.16947 67.9586 3.67215C66.7767 3.17482 65.5019 2.93646 64.2202 2.97312C62.9384 3.00978 61.6794 3.3206 60.5279 3.88466C59.3763 4.44872 58.359 5.25293 57.5443 6.24316C56.7296 7.23339 56.1366 8.38665 55.805 9.62531C55.4734 10.864 55.4111 12.1593 55.6221 13.4241C55.8332 14.6889 56.3127 15.8938 57.0285 16.9577C55.797 18.9364 55 21.154 54.69 23.4639C54.5889 24.193 54.5387 24.9282 54.54 25.6642C54.5348 28.2799 55.1569 30.8586 56.3541 33.1841C55.4108 33.8348 54.6966 34.7662 54.3128 35.8459C53.9291 36.9257 53.8954 38.0989 54.2166 39.1989C50.2753 39.8437 46.7676 42.1537 44.7615 45.567L39.9636 53.6338C39.5734 53.7514 39.18 53.8588 38.7934 53.9884C37.3779 54.4583 36.1119 55.2941 35.1236 56.4112C34.1353 57.5282 33.46 58.8866 33.166 60.3488C32.872 61.811 32.9699 63.3249 33.4497 64.7371C33.9295 66.1492 34.7741 67.4094 35.898 68.3899C35.0161 68.9204 34.2861 69.6694 33.7784 70.5646C33.2707 71.4598 33.0026 72.4709 33 73.5V79.5C33.0002 80.3449 33.1785 81.1802 33.5233 81.9516C33.8681 82.7229 34.3716 83.4129 35.001 83.9766L36.999 81.7384C36.6845 81.4564 36.433 81.1114 36.2609 80.7257C36.0888 80.34 35.9999 79.9223 36 79.5V73.5C36.001 72.7047 36.3174 71.9422 36.8798 71.3798C37.4422 70.8174 38.2047 70.501 39 70.5H117C117.795 70.501 118.558 70.8174 119.12 71.3798C119.683 71.9422 119.999 72.7047 120 73.5V79.5C119.999 80.2953 119.683 81.0578 119.12 81.6202C118.558 82.1825 117.795 82.4989 117 82.5H63V85.5H117C118.591 85.4984 120.116 84.8658 121.241 83.7409C122.366 82.616 122.998 81.0908 123 79.5V73.5C122.996 72.4387 122.71 71.3974 122.171 70.4831C121.632 69.5689 120.86 68.8145 119.933 68.2976C120.898 67.448 121.671 66.4022 122.2 65.2299C122.729 64.0577 123.002 62.7861 123 61.5ZM108.722 46.9189L112.299 52.6592L96.5336 54.0259L90.9 49.8C90.6405 49.6049 90.3246 49.4996 90 49.5H89.3203C90.5836 47.6677 91.4498 45.5914 91.8634 43.4046C91.9494 42.9519 92.0216 42.4809 92.0816 41.9998H99.7046C103.379 42 106.834 43.8838 108.722 46.9189ZM90.1436 23.2147L91.2686 25.6011C91.5105 26.1202 91.5614 26.708 91.4121 27.261C91.2628 27.8139 90.9231 28.2963 90.4528 28.6232C90.3471 28.3506 90.2653 28.0607 90.1509 27.7969L87.6354 21.8437C88.1448 21.777 88.6623 21.8738 89.1131 22.1202C89.5639 22.3667 89.9248 22.7499 90.1436 23.2147ZM83.7452 20.3422L87.3926 28.9761C87.7017 29.6913 87.9692 30.4237 88.1938 31.1698C89.1324 34.1488 89.4822 37.2821 89.2236 40.3948C89.1695 41.22 89.0663 42.0413 88.9146 42.8542C88.5342 44.909 87.6653 46.8421 86.3813 48.4907C86.0904 48.852 85.7718 49.1902 85.4284 49.5021L72.0981 49.6333C69.0751 47.7555 66.5058 45.2311 64.575 42.2417C64.1489 41.5986 63.7577 40.9331 63.4031 40.248L59.079 31.9438C58.0768 30.0338 57.5509 27.91 57.546 25.7531L58.6322 26.1446L59.6488 23.3233L57.8899 22.6892C58.0957 21.763 58.3988 20.8611 58.794 19.9986L62.169 22.2486L63.8333 19.7526L60.3234 17.4129C61.3441 16.0586 62.6107 14.9088 64.0571 14.0235L66.1729 18.5235L68.8886 17.2461L66.7719 12.744C68.3147 12.214 69.9418 11.9725 71.5719 12.0315L70.5456 16.1366L73.4548 16.8634L74.5631 12.4296C75.5428 12.6792 76.4906 13.0405 77.3878 13.5064L76.7477 15.2842L79.569 16.3009L79.9577 15.2214C81.6092 16.6031 82.9076 18.3585 83.7452 20.3422ZM57.7511 35.8875L60.7442 41.6361C60.8886 41.9092 61.0254 42.1577 61.1576 42.3947C60.6062 42.5457 60.019 42.496 59.5008 42.2543C58.9827 42.0126 58.5672 41.5947 58.3286 41.0751L57.2051 38.7126C56.9886 38.2438 56.9249 37.7189 57.0228 37.212C57.1208 36.7051 57.3756 36.2418 57.7511 35.8875ZM64.5 5.99999C65.5665 6.00235 66.613 6.28921 67.5316 6.83097C68.4502 7.37273 69.2077 8.14977 69.7258 9.08193C65.6175 9.42529 61.7866 11.2944 58.9875 14.3212C58.5945 13.4114 58.4347 12.418 58.5225 11.4308C58.6103 10.4436 58.9429 9.49396 59.4902 8.66775C60.0376 7.84155 60.7823 7.1649 61.6571 6.69908C62.5318 6.23326 63.509 5.99298 64.5 5.99999ZM47.3438 47.0947C49.0284 44.226 52.0901 42.3671 55.4758 42.063L55.6129 42.3516C55.9135 42.9997 56.3394 43.582 56.8662 44.0647C57.393 44.5474 58.0102 44.921 58.6821 45.164C59.354 45.4069 60.0674 45.5144 60.7811 45.4802C61.4948 45.446 62.1946 45.2708 62.8402 44.9647L62.8498 44.9604C64.2132 46.8656 65.8173 48.5864 67.6221 50.0801L47.7891 52.0635C46.5367 52.1884 45.2914 52.3856 44.0537 52.6249L47.3438 47.0947ZM39.7427 56.8329C42.4499 55.9315 45.2488 55.3332 48.0879 55.0489L73.5 52.5H89.5005L92.2031 54.5272L74.7876 57.0131C74.683 57.0281 74.5804 57.0541 74.4814 57.0907L46.2319 67.4985H41.4727C40.1731 67.4985 38.9159 67.0359 37.9261 66.1937C36.9363 65.3515 36.2785 64.1846 36.0704 62.9017C35.8623 61.6188 36.1175 60.3038 36.7903 59.1919C37.4632 58.08 38.5097 57.2438 39.7427 56.8329ZM114.15 67.5H111.066L76.6312 64.4458C76.4232 64.4252 76.2131 64.4508 76.0161 64.5208L67.2525 67.5H54.9062L75.3692 59.9604L94.7934 57.1875L113.85 55.5H114.134C114.345 55.4992 114.556 55.5114 114.766 55.5366C117.75 55.8647 120 58.4282 120 61.5C120 64.809 117.375 67.5 114.15 67.5Z" fill="#BA7894"/>
<path d="M63.9946 36.6036L65.8754 38.9415C67.5006 37.6372 69.4125 36.7379 71.4536 36.3178L70.8536 33.3793C68.344 33.8952 65.9931 35.0004 63.9946 36.6036Z" fill="#BA7894"/>
<path d="M78.8526 41.3687C77.786 41.8711 76.6269 42.1469 75.4483 42.1787L75.2021 42.1845L75.2725 45.1845L75.5171 45.1787C78.1207 45.1096 80.6246 44.1635 82.6234 42.4937L80.6987 40.1938C80.1365 40.6633 79.516 41.0582 78.8526 41.3687Z" fill="#BA7894"/>
<path d="M70.3183 32.3276L71.1678 29.4506C66.9287 28.2011 62.666 30.2124 61.0327 34.2379L63.813 35.3657C64.8707 32.7583 67.5425 31.5116 70.3183 32.3276Z" fill="#BA7894"/>
<path d="M74.1187 28.0635L76.8749 29.2448C78.013 26.589 80.6776 25.3292 83.3656 26.1729L84.268 23.3136C80.1269 22.002 75.8583 24.0015 74.1187 28.0635Z" fill="#BA7894"/>
<path d="M72.3076 31.6213L75.0236 30.3458L78.9304 38.6649L76.2144 39.9404L72.3076 31.6213Z" fill="#BA7894"/>
<path d="M79.3023 32.8301C80.928 31.5261 82.8401 30.6268 84.8813 30.2062L84.2778 27.2677C81.769 27.784 79.4188 28.8891 77.4209 30.4918L79.3023 32.8301Z" fill="#BA7894"/>
<path d="M59.323 79.6455C58.9876 79.1062 58.548 78.6393 58.03 78.2719C57.512 77.9045 56.9259 77.644 56.3061 77.5058C55.5701 77.3353 54.811 77.2876 54.0595 77.3646C54.0426 77.2678 54.0235 77.1713 53.9999 77.0747C53.8489 76.4645 53.5752 75.8916 53.1953 75.3908C52.8154 74.8901 52.3373 74.4721 51.7903 74.1624C49.5664 72.8745 46.6664 73.5398 45.3274 75.6461C44.9561 76.2291 44.6869 76.871 44.5313 77.5444C43.8592 77.431 43.1707 77.462 42.5115 77.6352C41.8522 77.8083 41.2374 78.1198 40.7078 78.5488L40.6605 78.5863C40.186 78.9647 39.7947 79.4369 39.511 79.9734C39.2273 80.5099 39.0575 81.0992 39.012 81.7044C38.9675 82.3029 39.0469 82.904 39.2454 83.4703C39.4438 84.0367 39.757 84.5559 40.1654 84.9956L40.3247 85.1704C40.7778 85.6645 41.3059 86.0841 41.8898 86.4135C41.597 87.0013 41.4393 87.6472 41.4282 88.3039C41.4171 88.9605 41.553 89.6113 41.8259 90.2087C42.3561 91.3205 43.2863 92.1914 44.4306 92.6475C45.5748 93.1035 46.8491 93.1112 47.9987 92.6689C48.6789 92.4061 49.3103 92.0312 49.8666 91.5598C50.321 92.0162 50.8611 92.3783 51.4558 92.6255C52.0505 92.8726 52.6881 92.9999 53.3322 93C53.4462 93 53.5608 92.996 53.676 92.988C54.3053 92.949 54.9202 92.7832 55.4838 92.5008C56.0475 92.2183 56.5483 91.8249 56.9562 91.3442C57.3433 90.8903 57.6347 90.3629 57.813 89.7936C57.9913 89.2243 58.0528 88.6249 57.9938 88.0312C57.9255 87.3344 57.7399 86.6541 57.4448 86.0192C58.0483 85.7334 58.5801 85.3162 59.0013 84.7981C59.4225 84.28 59.7224 83.6741 59.8789 83.025C60.0155 82.453 60.0366 81.8595 59.9412 81.2793C59.8457 80.699 59.6356 80.1436 59.323 79.6455ZM55.6313 80.4291C55.8648 80.4792 56.0861 80.5754 56.282 80.712C56.478 80.8486 56.6448 81.0228 56.7726 81.2246C56.8758 81.3865 56.9457 81.5673 56.9782 81.7565C57.0107 81.9457 57.0051 82.1395 56.9618 82.3266C56.7994 83.0053 56.1347 83.4754 55.3733 83.4953C54.2723 82.6838 52.9526 82.2224 51.5858 82.1709C52.2794 80.8024 53.9488 80.0398 55.6313 80.4291ZM47.8594 77.2553C48.3387 76.5015 49.4503 76.2743 50.2868 76.7586C50.4829 76.8668 50.6548 77.0138 50.7922 77.1907C50.9295 77.3676 51.0294 77.5706 51.0857 77.7874C51.135 77.9889 51.1389 78.1989 51.0972 78.4022C49.97 79.1236 49.1058 80.1896 48.6334 81.4417C48.0571 80.9823 47.6477 80.3461 47.4683 79.6313C47.3684 79.2294 47.3516 78.8115 47.4189 78.4029C47.4861 77.9944 47.636 77.6039 47.8594 77.2553ZM42.0038 81.927C42.0206 81.7296 42.078 81.5377 42.1724 81.3635C42.2667 81.1893 42.3961 81.0364 42.5522 80.9145L42.5997 80.877C42.8895 80.6477 43.242 80.5116 43.6108 80.4866C43.9795 80.4616 44.3472 80.5488 44.6653 80.7369C45.0641 81.9991 45.8468 83.1053 46.9043 83.9014C46.1926 84.263 45.3831 84.3849 44.5964 84.249C43.8097 84.1131 43.0881 83.7267 42.5389 83.1472L42.3794 82.9727C42.2482 82.8336 42.1471 82.6689 42.0825 82.489C42.0179 82.3091 41.9911 82.1178 42.0038 81.927ZM46.9112 89.8738C46.0142 90.2224 44.9376 89.8103 44.5594 88.9738C44.4275 88.6885 44.3941 88.3674 44.4643 88.061C44.5345 87.7546 44.7044 87.4802 44.9474 87.2807C45.042 87.2846 45.1365 87.2876 45.2312 87.2876C46.5525 87.2923 47.8455 86.9058 48.9475 86.1769C49.1015 86.8011 49.0534 87.4581 48.81 88.0532C48.6353 88.4706 48.3765 88.8477 48.0499 89.1609C47.7232 89.4741 47.3356 89.7168 46.9112 89.8738ZM54.6653 89.4073C54.5151 89.581 54.3314 89.7226 54.1252 89.8237C53.9191 89.9247 53.6946 89.9831 53.4653 89.9953C53.0981 90.023 52.731 89.9407 52.4109 89.7588C52.0907 89.577 51.8321 89.3038 51.6679 88.9742C52.1148 87.7599 52.1576 86.4337 51.7898 85.1931C53.4702 85.3944 54.8483 86.6788 55.0075 88.3208C55.0265 88.5156 55.0061 88.7122 54.9473 88.899C54.8885 89.0857 54.7926 89.2586 54.6653 89.4073Z" fill="#BA7894"/>
</svg>
