<svg width="29" height="30" viewBox="0 0 29 30" fill="none" xmlns="http://www.w3.org/2000/svg">
<path d="M9.8048 28.9944V18.7287C9.8048 16.2989 11.7746 14.3291 14.2044 14.3291V14.3291C16.6342 14.3291 18.604 16.2989 18.604 18.7287V28.9944M27.4032 26.0613V12.3887C27.4032 10.837 26.6868 9.37233 25.462 8.41973L17.2913 2.06477C15.4756 0.652556 12.9331 0.652555 11.1174 2.06477L2.94677 8.41973C1.72199 9.37233 1.00562 10.837 1.00562 12.3887V26.0613C1.00562 26.8392 1.31464 27.5853 1.86469 28.1353C2.41475 28.6854 3.16078 28.9944 3.93868 28.9944H24.4701C25.248 28.9944 25.994 28.6854 26.5441 28.1353C27.0941 27.5853 27.4032 26.8392 27.4032 26.0613Z" stroke="#422A3C" stroke-width="2" stroke-linecap="round" stroke-linejoin="round"/>
</svg>
