<svg width="80" height="86" viewBox="0 0 80 86" fill="none" xmlns="http://www.w3.org/2000/svg">
<path d="M77.4831 44.5946L62.399 31.7112C62.4203 29.1986 61.8443 26.7347 60.7051 24.481C60.7606 24.4584 60.8164 24.4367 60.8715 24.4126C63.1013 23.4297 64.6825 21.4097 65.1012 19.009C65.3667 17.4854 64.9228 15.9547 63.8826 14.81C62.8423 13.6655 61.362 13.0777 59.8192 13.1955C59.66 13.2079 59.5023 13.2301 59.3456 13.2576C59.3359 13.1607 59.3283 13.0639 59.315 12.9668C59.0823 11.2625 58.0951 9.79049 56.6066 8.92846C55.258 8.14735 53.6801 7.97448 52.2094 8.42962C51.6743 6.84233 50.4749 5.60075 48.8999 5.01454C47.638 4.54477 46.2842 4.55218 45.054 5.00998C44.8357 4.5518 44.5829 4.10635 44.2881 3.68141C43.173 2.07435 41.4133 1.09188 39.4601 0.986078C37.8874 0.900786 36.3778 1.39544 35.1799 2.36271C35.1771 2.35948 35.1744 2.35625 35.1716 2.35302C33.8111 0.857665 31.8712 0 29.8495 0C27.3665 0 25.0924 1.25335 23.7664 3.35259C22.4403 5.45183 22.2855 8.04382 23.3519 10.2859L23.62 10.8491C23.9589 11.5619 24.2231 12.3069 24.4087 13.0724L8.9388 26.1807C6.801 27.9924 5.57481 30.6385 5.57481 33.4406V48.6856C5.57481 48.9357 5.51383 49.1852 5.39834 49.4072L0.160977 59.479C-0.202035 60.1771 0.0696064 61.0373 0.767706 61.4003C0.977611 61.5095 1.20233 61.5612 1.42383 61.5612C1.93842 61.5612 2.43517 61.2816 2.68914 60.7934L7.92632 50.7215C8.25191 50.0954 8.4242 49.3913 8.4242 48.6854V33.4404C8.4242 31.4774 9.28319 29.6236 10.781 28.3544L24.7027 16.558C24.687 16.7888 24.6659 17.0192 24.6361 17.2492L24.2448 20.2603C24.1925 20.6622 24.1456 21.0649 24.1011 21.468L18.9445 27.6288C18.296 28.4036 18.0171 29.4201 18.1795 30.4174L20.0271 41.7635C20.2765 43.2962 21.5849 44.4088 23.1379 44.4088H25.3178C26.4185 44.4088 27.4541 43.8226 28.0206 42.8785L31.0276 37.8668C31.3397 37.3469 31.8374 36.9877 32.4291 36.8557C33.0211 36.7237 33.6242 36.8369 34.1276 37.1748L34.3897 37.3507C35.2637 37.9373 35.5973 39.0655 35.1826 40.0331L32.4008 46.525C32.091 47.2483 32.4261 48.0857 33.1493 48.3957C33.3322 48.4741 33.5225 48.5112 33.7098 48.5112C34.2626 48.5112 34.7886 48.1875 35.02 47.6472L37.8018 41.1554C38.7555 38.9295 37.9883 36.3344 35.9776 34.985L35.7156 34.8091C34.5574 34.0319 33.17 33.7709 31.8085 34.0749C30.4471 34.3788 29.3022 35.2049 28.5846 36.4009L25.5775 41.4124C25.5232 41.5032 25.4236 41.5594 25.318 41.5594H23.138C22.9889 41.5594 22.8636 41.4527 22.8394 41.3055L20.9919 29.9594C20.9626 29.7799 21.0128 29.597 21.1296 29.4575L23.7535 26.3226C23.6718 28.7921 23.733 31.2675 23.9397 33.7276C24.0054 34.5116 24.6934 35.0946 25.4785 35.0281C26.2625 34.9622 26.8449 34.2732 26.779 33.4892C26.4196 29.2096 26.5178 24.8822 27.0706 20.6273L27.4619 17.6162C27.6452 16.2046 27.6173 14.7777 27.3789 13.3746C27.376 13.3579 27.3724 13.3414 27.3696 13.3247C27.3692 13.3232 27.369 13.3218 27.3688 13.3203C27.1462 12.0407 26.7515 10.7975 26.1935 9.62504L25.9257 9.06181C25.2814 7.70759 25.375 6.14195 26.1759 4.87416C26.9767 3.60637 28.3498 2.84939 29.8495 2.84939C31.0886 2.84939 32.2301 3.35411 33.064 4.27066C33.8979 5.18721 34.2926 6.37123 34.176 7.60482L34.1006 8.40246C33.9644 9.84026 34.2018 11.2982 34.7873 12.6184C35.9485 15.2376 38.3302 17.0737 41.1587 17.53L48.566 18.7252C50.5254 19.0413 52.3414 19.778 53.9196 20.8714C53.9684 20.9109 54.0195 20.947 54.0725 20.9793C55.2789 21.8413 56.3423 22.9138 57.216 24.1727C57.246 24.216 57.2731 24.2608 57.3026 24.3045C57.3045 24.3074 57.3064 24.3102 57.3083 24.3131C59.278 27.228 59.985 30.7249 59.2937 34.1818L56.3921 48.693C56.2379 49.4646 56.7382 50.2151 57.5098 50.3694C57.6042 50.3882 57.6981 50.3973 57.7908 50.3973C58.456 50.3973 59.051 49.9288 59.1864 49.2516L60.5286 42.5396L64.3263 47.0768C64.4211 47.1902 64.4619 47.3388 64.4382 47.4845L62.6051 58.7429C62.5679 58.9717 62.3726 59.1377 62.141 59.1377H60.1985C60.0344 59.1377 59.8798 59.0503 59.7954 58.9094L56.928 54.1306C56.1866 52.8947 55.0033 52.041 53.5969 51.727C52.1904 51.413 50.7562 51.6824 49.5593 52.4857C47.4815 53.8802 46.689 56.5618 47.6745 58.8615L51.5983 68.019C53.3269 72.0528 56.4704 75.2929 60.45 77.1426L62.0552 77.8886L67.6284 85.4225C67.9078 85.8002 68.3384 86 68.7748 86C69.0692 86 69.3661 85.909 69.6208 85.7206C70.2534 85.2527 70.387 84.3605 69.9189 83.7279L64.1299 75.9021C63.9884 75.7107 63.8011 75.5579 63.5851 75.4575L61.6507 74.5586C58.3088 73.0053 55.6689 70.2843 54.2171 66.8966L50.2933 57.739C49.8469 56.6975 50.2061 55.4829 51.1469 54.8513C51.6891 54.4875 52.3389 54.3652 52.9757 54.5076C53.6128 54.6499 54.1485 55.0365 54.4842 55.5963L57.3516 60.3751C57.9481 61.3693 59.0388 61.9869 60.1981 61.9869H62.1406C63.7762 61.9869 65.1542 60.8152 65.4171 59.2008L67.2502 47.9419C67.4069 46.9784 67.1375 45.9963 66.5108 45.2477L61.2448 38.9562L62.0107 35.1263L75.6327 46.7609C76.4995 47.5012 76.9968 48.5796 76.9968 49.7195V55.041C76.9968 55.8278 77.6345 56.4657 78.4215 56.4657C79.2085 56.4657 79.8462 55.8278 79.8462 55.041V49.7199C79.846 47.7453 78.9845 45.877 77.4831 44.5946ZM60.0382 16.0363C60.6954 15.9849 61.3295 16.2369 61.7736 16.7259C62.218 17.2149 62.4077 17.8687 62.2941 18.5195C62.0396 19.9791 61.0782 21.2074 59.7225 21.805C59.5373 21.8867 59.3462 21.9483 59.1511 21.9937C58.5309 21.1755 57.8413 20.4293 57.0936 19.7573C58.0273 18.7904 58.6976 17.6238 59.0644 16.3617C59.3566 16.1767 59.6919 16.0631 60.0382 16.0363ZM55.1788 11.3941C55.9005 11.812 56.379 12.5259 56.492 13.3522C56.5771 13.9749 56.549 14.5963 56.4217 15.1922C56.4147 15.2203 56.4096 15.2488 56.4043 15.2773C56.1623 16.3264 55.6042 17.2906 54.7814 18.0341C53.518 17.2631 52.1456 16.6693 50.6909 16.2744C50.7306 16.2278 50.7716 16.1826 50.8098 16.1351C51.9309 14.745 52.5464 13.0574 52.6159 11.3269C52.6849 11.2915 52.755 11.2585 52.8268 11.2294C53.5995 10.9162 54.4566 10.976 55.1788 11.3941ZM47.9061 7.68499C48.6879 7.97581 49.2795 8.59907 49.5296 9.39481C49.663 9.81937 49.7413 10.2529 49.7667 10.686C49.7671 10.6903 49.7671 10.6945 49.7675 10.6989C49.8408 12.0031 49.4331 13.3032 48.5916 14.3465C48.2183 14.8096 47.7368 15.1889 47.1988 15.4435L46.9234 15.5738L43.6945 15.0527C44.3869 14.3258 44.9417 13.4632 45.3103 12.5307C45.9208 10.9863 46.1014 9.34143 45.8782 7.75071C46.5169 7.46444 47.238 7.43633 47.9061 7.68499ZM37.392 11.4635C37.0043 10.5889 36.847 9.62333 36.9372 8.67087L37.0127 7.87323C37.1097 6.84802 36.9821 5.82339 36.6548 4.86656C37.3481 4.15232 38.3029 3.77677 39.306 3.83109C40.3744 3.88903 41.3369 4.42643 41.9469 5.30537C42.3915 5.94629 42.7097 6.64971 42.9029 7.38105C42.9132 7.42911 42.9261 7.4766 42.9415 7.52352C43.2534 8.82132 43.167 10.2019 42.6603 11.483C42.3868 12.175 41.9529 12.8074 41.4055 13.3116L40.295 14.3345C39.0139 13.7863 37.9725 12.7728 37.392 11.4635Z" fill="#BA7894"/>
</svg>
