<svg width="29" height="19" viewBox="0 0 29 19" fill="none" xmlns="http://www.w3.org/2000/svg">
<path d="M13.9758 19C10.0765 19 6.4589 17.4347 3.78931 14.5923C1.11991 11.7502 -0.215851 8.04148 0.0284429 4.14984L0.204282 1.34813C0.253946 0.55542 0.935628 -0.0461153 1.72968 0.00278182C2.52239 0.052446 3.12469 0.735475 3.07502 1.52818L2.89918 4.32989C2.70513 7.42058 3.76591 10.3659 5.88594 12.623C8.00597 14.8804 10.879 16.1235 13.9756 16.1235C19.1739 16.1235 23.6208 12.5858 24.7898 7.52067L25.511 4.39605C25.6956 3.59548 25.863 2.74677 26.0084 1.87391C26.1389 1.09041 26.8776 0.560403 27.6634 0.691563C28.4469 0.821955 28.9761 1.56289 28.8457 2.3464C28.6906 3.27755 28.5117 4.18473 28.3136 5.04283L27.5924 8.16765C26.1207 14.5458 20.5213 19 13.9758 19Z" fill="#BA7894"/>
</svg>
