<svg width="27" height="27" viewBox="0 0 27 27" fill="none" xmlns="http://www.w3.org/2000/svg">
<path d="M19.7069 7.24294C18.9604 6.49645 19.538 5.61741 20.3095 6.33803C20.3615 6.38662 20.4128 6.43615 20.4632 6.4866C20.5137 6.53705 20.5632 6.5883 20.6118 6.64032C21.3324 7.41182 20.4534 7.98944 19.7069 7.24294V7.24294ZM22.2152 4.72834C20.5633 3.07844 21.8196 1.02786 23.5518 2.59333C23.6908 2.71898 23.827 2.84833 23.9601 2.98129C24.0932 3.11425 24.2227 3.25025 24.3486 3.38913C25.9162 5.11935 23.8672 6.37824 22.2152 4.72834V4.72834ZM25.9464 19.7156V23.4782C25.9478 23.8274 25.8763 24.1732 25.7363 24.4932C25.5964 24.8132 25.3912 25.1005 25.1338 25.3367C24.8764 25.5728 24.5725 25.7526 24.2417 25.8645C23.9108 25.9764 23.5602 26.0179 23.2123 25.9865C19.353 25.5671 15.6459 24.2484 12.3888 22.1362C9.35853 20.2106 6.78938 17.6415 4.86381 14.6112C2.74424 11.3393 1.42519 7.61417 1.01351 3.73754C0.982173 3.39073 1.02339 3.04118 1.13454 2.71116C1.24569 2.38115 1.42434 2.07789 1.65912 1.8207C1.89389 1.56351 2.17965 1.35802 2.49819 1.21732C2.81673 1.07662 3.16108 1.00379 3.50931 1.00346H7.27181C7.88047 0.997467 8.47054 1.213 8.93203 1.60989C9.39353 2.00678 9.69496 2.55793 9.78015 3.16063C9.93896 4.36471 10.2335 5.54697 10.6581 6.68484C10.8268 7.13374 10.8633 7.6216 10.7633 8.09061C10.6633 8.55963 10.4309 8.99014 10.0937 9.33114V9.33114C9.15287 10.272 8.9387 11.7399 9.7218 12.8156C10.9535 14.5074 12.4424 15.9964 14.1343 17.228C15.2099 18.0111 16.6779 17.797 17.6187 16.8561V16.8561C17.9597 16.5189 18.3902 16.2866 18.8592 16.1865C19.3282 16.0865 19.8161 16.123 20.265 16.2918C21.4029 16.7164 22.5851 17.0109 23.7892 17.1697C24.3984 17.2556 24.9548 17.5625 25.3526 18.0319C25.7503 18.5013 25.9616 19.1006 25.9464 19.7156Z" stroke="#422A3C" stroke-width="2" stroke-linecap="round" stroke-linejoin="round"/>
</svg>
