<svg width="52" height="41" viewBox="0 0 52 41" fill="none" xmlns="http://www.w3.org/2000/svg">
<path d="M24.3189 13.4358C24.3196 13.436 24.3206 13.4361 24.3213 13.4363L26.0347 11.8582C26.7373 11.2109 27.2847 10.4134 27.6358 9.52505C28.6129 7.05384 28.2899 4.2577 26.775 2.07451C24.9806 -0.511794 21.2304 -0.714855 19.1672 1.66255C19.072 1.77218 18.9843 1.88633 18.9004 2.00236L14.7349 6.71817L15.8685 13.8398L24.3189 13.4358Z" fill="white"/>
<path d="M49.8445 34.2951L44.4833 29.7161L34.7762 20.9257L31.3107 24.8108L43.2326 36.6364L45.5463 39.4005L48.6342 40.5367L52 38.2362L49.8445 34.2951Z" fill="white"/>
<path d="M14.527 7.8983L9.77501 11.1183L1.52127 18.112L0 21.6829L1.52127 25.6466L5.15602 24.4077L9.13475 19.6542L17.2625 12.6365L17.6774 13.355L14.527 7.8983Z" fill="white"/>
</svg>
