<svg width="26" height="26" viewBox="0 0 26 26" fill="none" xmlns="http://www.w3.org/2000/svg">
<g clip-path="url(#clip0_1_1124)">
<path d="M23.5624 22.4136L17.4264 16.2775C18.9008 14.5073 19.6361 12.2369 19.4792 9.93844C19.3223 7.64001 18.2853 5.49054 16.5839 3.9372C14.8826 2.38385 12.6479 1.54623 10.3447 1.59857C8.04151 1.6509 5.84716 2.58918 4.21814 4.2182C2.58912 5.84722 1.65084 8.04157 1.5985 10.3448C1.54617 12.648 2.38379 14.8827 3.93714 16.584C5.49048 18.2853 7.63994 19.3223 9.93838 19.4792C12.2368 19.6361 14.5073 18.9009 16.2774 17.4264L22.4135 23.5625L23.5624 22.4136ZM3.24995 10.5625C3.24995 9.11623 3.67882 7.70244 4.48233 6.4999C5.28583 5.29737 6.42789 4.36011 7.76408 3.80664C9.10026 3.25317 10.5706 3.10836 11.989 3.39052C13.4075 3.67267 14.7105 4.36912 15.7332 5.39179C16.7558 6.41446 17.4523 7.71743 17.7344 9.13591C18.0166 10.5544 17.8718 12.0247 17.3183 13.3609C16.7649 14.6971 15.8276 15.8391 14.6251 16.6426C13.4225 17.4461 12.0087 17.875 10.5624 17.875C8.62371 17.8729 6.765 17.1017 5.3941 15.7309C4.02321 14.36 3.2521 12.5012 3.24995 10.5625Z" fill="white"/>
</g>
<defs>
<clipPath id="clip0_1_1124">
<rect width="26" height="26" fill="white"/>
</clipPath>
</defs>
</svg>
