<svg width="40" height="40" viewBox="0 0 40 40" fill="none" xmlns="http://www.w3.org/2000/svg">
<g clip-path="url(#clip0_0_6)">
<path fill-rule="evenodd" clip-rule="evenodd" d="M13.3801 0.50354C11.1787 0.50354 9.06761 1.37801 7.51103 2.93459L0 10.4456V13.8836C0 16.3126 1.04336 18.4979 2.70635 20.0157C1.04336 21.5336 0 23.7188 0 26.1478V29.5859L7.51103 37.0969C9.06761 38.6535 11.1787 39.5279 13.3801 39.5279C15.8091 39.5279 17.9943 38.4846 19.5122 36.8216C21.03 38.4846 23.2153 39.5279 25.6443 39.5279C27.8456 39.5279 29.9568 38.6535 31.5134 37.0969L39.0244 29.5859V26.1478C39.0244 23.7188 37.9811 21.5336 36.318 20.0157C37.9811 18.4979 39.0244 16.3126 39.0244 13.8836V10.4456L31.5134 2.93459C29.9568 1.37801 27.8456 0.50354 25.6443 0.50354C23.2153 0.50354 21.03 1.54689 19.5122 3.20989C17.9943 1.54689 15.8091 0.50354 13.3801 0.50354ZM25.1305 20.0157C25.037 19.9304 24.9452 19.8426 24.8552 19.7527L19.5122 14.4097L14.1692 19.7527C14.0792 19.8426 13.9874 19.9304 13.8938 20.0157C13.9874 20.1011 14.0792 20.1888 14.1692 20.2787L19.5122 25.6218L24.8552 20.2787C24.9452 20.1888 25.037 20.1011 25.1305 20.0157ZM21.6802 29.5859V31.2278C21.6802 33.4171 23.455 35.1919 25.6443 35.1919C26.6956 35.1919 27.7039 34.7743 28.4473 34.0308L34.6884 27.7898V26.1478C34.6884 23.9585 32.9135 22.1837 30.7243 22.1837C29.673 22.1837 28.6647 22.6014 27.9213 23.3448L21.6802 29.5859ZM17.3442 29.5859L11.1031 23.3448C10.3597 22.6014 9.35145 22.1837 8.30011 22.1837C6.11082 22.1837 4.33604 23.9585 4.33604 26.1478V27.7898L10.5771 34.0308C11.3205 34.7743 12.3288 35.1919 13.3801 35.1919C15.5694 35.1919 17.3442 33.4171 17.3442 31.2278V29.5859ZM17.3442 8.80365V10.4456L11.1031 16.6866C10.3597 17.4301 9.35145 17.8477 8.30011 17.8477C6.11082 17.8477 4.33604 16.0729 4.33604 13.8836V12.2417L10.5771 6.00063C11.3205 5.25722 12.3288 4.83958 13.3801 4.83958C15.5694 4.83958 17.3442 6.61436 17.3442 8.80365ZM27.9213 16.6866L21.6802 10.4456V8.80365C21.6802 6.61436 23.455 4.83958 25.6443 4.83958C26.6956 4.83958 27.7039 5.25722 28.4473 6.00063L34.6884 12.2417V13.8836C34.6884 16.0729 32.9135 17.8477 30.7243 17.8477C29.673 17.8477 28.6647 17.4301 27.9213 16.6866Z" fill="#422A3C"/>
</g>
<defs>
<clipPath id="clip0_0_6">
<rect width="39.0244" height="40" fill="white"/>
</clipPath>
</defs>
</svg>
