<svg width="407" height="18" viewBox="0 0 407 18" fill="none" xmlns="http://www.w3.org/2000/svg">
<path d="M8.74031 0C3.91205 0 0.000107074 3.94719 0.000107074 8.7402C0.000107074 13.5685 3.91205 17.4804 8.74031 17.4804C13.5333 17.4804 17.4805 13.5685 17.4805 8.7402C17.4805 3.94719 13.5333 0 8.74031 0ZM8.74031 15.7887C4.82836 15.7887 1.69176 12.6521 1.69176 8.7402C1.69176 4.8635 4.82836 1.69165 8.74031 1.69165C12.617 1.69165 15.7889 4.8635 15.7889 8.7402C15.7889 12.6521 12.617 15.7887 8.74031 15.7887ZM12.5113 12.2292C12.5818 12.1587 12.617 12.053 12.617 11.9473C12.617 11.8416 12.5818 11.7711 12.5465 11.7006L11.8417 10.749C11.7007 10.5376 11.4188 10.5023 11.2073 10.6785C10.8901 10.9605 10.0443 11.6301 8.91652 11.6301C7.0839 11.6301 6.13234 10.1499 6.13234 8.70496C6.13234 7.11903 7.18963 5.85029 8.88128 5.85029C9.93856 5.85029 10.7491 6.41418 11.0663 6.66088C11.2425 6.80185 11.5597 6.76661 11.6655 6.55515L12.3351 5.56835C12.3703 5.49787 12.4056 5.42738 12.4056 5.32165C12.4056 5.21592 12.3351 5.1102 12.2646 5.03971C11.9474 4.72253 10.7844 3.80622 8.81079 3.80622C6.02661 3.80622 3.87681 5.92078 3.87681 8.70496C3.87681 11.5244 5.92089 13.7094 8.84603 13.7094C10.8901 13.7094 12.1589 12.5817 12.5113 12.2292ZM31.5339 8.31729C33.0493 6.66088 33.6837 5.39214 33.6837 3.91194C33.6837 1.83262 32.2035 0.528641 29.8422 0.528641C28.2916 0.528641 26.5999 1.16301 25.6131 2.11456L26.177 3.27757C27.3753 2.29078 28.5735 1.79738 29.807 1.79738C31.3224 1.79738 32.1683 2.57272 32.1683 3.98243C32.1683 5.07495 31.6396 6.09699 30.4414 7.43622L25.9303 12.4054V13.5332H34.2123V12.2997H27.8687L31.5339 8.31729ZM36.1112 7.11903C36.1112 11.4186 37.6619 13.6742 40.6223 13.6742C43.5474 13.6742 45.0981 11.4186 45.0981 7.08379C45.0981 2.81942 43.5474 0.528641 40.6223 0.528641C37.6619 0.528641 36.1112 2.78418 36.1112 7.11903ZM43.6179 7.08379C43.6179 10.749 42.6311 12.4407 40.6223 12.4407C38.5782 12.4407 37.6267 10.7138 37.6267 7.08379C37.6267 3.45379 38.5782 1.79738 40.6223 1.79738C42.6664 1.79738 43.6179 3.45379 43.6179 7.08379ZM52.9178 8.31729C54.4332 6.66088 55.0676 5.39214 55.0676 3.91194C55.0676 1.83262 53.5874 0.528641 51.2261 0.528641C49.6754 0.528641 47.9838 1.16301 46.997 2.11456L47.5609 3.27757C48.7591 2.29078 49.9574 1.79738 51.1909 1.79738C52.7063 1.79738 53.5521 2.57272 53.5521 3.98243C53.5521 5.07495 53.0235 6.09699 51.8253 7.43622L47.3142 12.4054V13.5332H55.5962V12.2997H49.2525L52.9178 8.31729ZM66.0943 10.0442C66.0943 8.45826 65.2837 7.36573 63.7683 6.94282C65.0371 6.44942 65.8124 5.28641 65.8124 3.80622C65.8124 1.79738 64.297 0.528641 62.0062 0.528641C60.3498 0.528641 58.7638 1.12777 57.7418 2.11456L58.3057 3.27757C59.5039 2.29078 60.7022 1.79738 61.9357 1.79738C63.4511 1.79738 64.3322 2.57272 64.3322 3.94719C64.3322 5.53311 63.2749 6.37894 61.3718 6.37894H60.1736V7.64767H61.6537C63.6273 7.64767 64.6141 8.42301 64.6141 10.0089C64.6141 11.5949 63.6626 12.4054 61.83 12.4054C60.5612 12.4054 59.2925 11.912 58.1295 10.9252L57.5303 12.0883C58.5876 13.0751 60.2088 13.6742 61.8652 13.6742C64.4732 13.6742 66.0943 12.2997 66.0943 10.0442ZM83.4563 12.053C84.6193 13.1455 86.2405 13.6742 88.2493 13.6742C91.1392 13.6742 92.9719 12.2292 92.9719 10.0442C92.9719 8.56398 92.0555 7.68292 90.7516 7.26C90.1172 7.04855 89.2714 6.76661 88.1788 6.51991C86.1348 6.02651 85.148 5.49787 85.148 4.19389C85.148 2.71369 86.3462 1.79738 88.3551 1.79738C89.8 1.79738 90.9983 2.29078 92.1965 3.31282L92.7956 2.14981C91.7384 1.09252 90.1524 0.528641 88.3551 0.528641C85.5356 0.528641 83.6678 2.04408 83.6678 4.26437C83.6678 5.77981 84.5488 6.69612 85.8176 7.22476C86.4519 7.47146 87.2625 7.68292 88.2493 7.92962C90.3639 8.42301 91.4564 8.7402 91.4917 10.1147C91.5269 11.5596 90.3286 12.4054 88.2493 12.4054C86.5224 12.4054 85.2889 11.9825 83.985 10.9252L83.4563 12.053ZM102.659 8.66971C102.659 5.92078 101.214 4.22913 98.8179 4.22913C96.3157 4.22913 94.5535 6.16748 94.5535 8.95165C94.5535 11.8768 96.2452 13.6742 99.0999 13.6742C100.369 13.6742 101.708 13.1808 102.518 12.4407L102.025 11.3834C101.144 12.0883 100.157 12.4407 99.0999 12.4407C97.091 12.4407 96.0337 11.2424 96.0337 8.95165H102.659V8.66971ZM96.069 8.0001C96.3509 6.34369 97.3025 5.39214 98.8179 5.39214C100.333 5.39214 101.214 6.27321 101.355 8.0001H96.069ZM109.809 4.33486C109.563 4.26437 109.281 4.22913 108.999 4.22913C107.695 4.22913 106.602 4.89874 106.144 6.13224L106.003 4.44058H104.629C104.699 5.21592 104.77 6.06175 104.77 7.0133V13.5332H106.215V8.35253C106.215 7.57719 106.461 6.90758 106.849 6.37894C107.307 5.81505 107.942 5.53311 108.823 5.53311C109.175 5.53311 109.527 5.60359 109.774 5.67408L109.809 4.33486ZM112.66 4.47583H111.109L114.986 13.5332H116.36L120.272 4.47583H118.827L115.726 11.9473L112.66 4.47583ZM123.334 2.25554V0.599127H121.572V2.25554H123.334ZM123.158 4.44058H121.713V13.5332H123.158V4.44058ZM125.304 8.9869C125.304 11.8063 126.995 13.6742 129.638 13.6742C130.872 13.6742 132.141 13.216 132.916 12.4759L132.423 11.4186C131.506 12.1235 130.66 12.4407 129.779 12.4407C127.912 12.4407 126.819 11.1719 126.819 8.9869C126.819 6.76661 127.912 5.46262 129.779 5.46262C130.66 5.46262 131.506 5.77981 132.423 6.51991L132.916 5.42738C132.176 4.68728 130.942 4.22913 129.709 4.22913C127.03 4.22913 125.304 6.16748 125.304 8.9869ZM142.603 8.66971C142.603 5.92078 141.159 4.22913 138.762 4.22913C136.26 4.22913 134.498 6.16748 134.498 8.95165C134.498 11.8768 136.189 13.6742 139.044 13.6742C140.313 13.6742 141.652 13.1808 142.463 12.4407L141.969 11.3834C141.088 12.0883 140.101 12.4407 139.044 12.4407C137.035 12.4407 135.978 11.2424 135.978 8.95165H142.603V8.66971ZM136.013 8.0001C136.295 6.34369 137.247 5.39214 138.762 5.39214C140.277 5.39214 141.159 6.27321 141.3 8.0001H136.013ZM146.124 0.669612H144.89V13.5332H146.265L146.229 4.05291L150.458 13.5332H151.48L155.674 3.98243V13.5332H157.049V0.669612H155.815L150.987 11.7711L146.124 0.669612ZM166.419 6.02651C165.855 4.89874 164.763 4.22913 163.353 4.22913C160.956 4.22913 159.335 6.16748 159.335 8.9869C159.335 11.8063 160.921 13.6742 163.353 13.6742C164.763 13.6742 165.89 13.0398 166.419 11.8768V13.5332H167.864V4.44058H166.419V6.02651ZM166.419 8.95165C166.419 11.1719 165.432 12.4407 163.635 12.4407C161.838 12.4407 160.816 11.2072 160.816 8.9869C160.816 6.76661 161.838 5.46262 163.635 5.46262C165.432 5.46262 166.419 6.69612 166.419 8.95165ZM175.014 4.33486C174.767 4.26437 174.485 4.22913 174.204 4.22913C172.9 4.22913 171.807 4.89874 171.349 6.13224L171.208 4.44058H169.833C169.904 5.21592 169.974 6.06175 169.974 7.0133V13.5332H171.419V8.35253C171.419 7.57719 171.666 6.90758 172.054 6.37894C172.512 5.81505 173.146 5.53311 174.027 5.53311C174.38 5.53311 174.732 5.60359 174.979 5.67408L175.014 4.33486ZM185.089 4.47583H183.257L178.957 8.63447V0.246699H177.512V13.5332H178.957V9.16311L183.644 13.5332H185.547L180.543 8.81068L185.089 4.47583ZM195.764 8.66971C195.764 5.92078 194.319 4.22913 191.922 4.22913C189.42 4.22913 187.658 6.16748 187.658 8.95165C187.658 11.8768 189.349 13.6742 192.204 13.6742C193.473 13.6742 194.812 13.1808 195.623 12.4407L195.129 11.3834C194.248 12.0883 193.261 12.4407 192.204 12.4407C190.195 12.4407 189.138 11.2424 189.138 8.95165H195.764V8.66971ZM189.173 8.0001C189.455 6.34369 190.407 5.39214 191.922 5.39214C193.438 5.39214 194.319 6.27321 194.46 8.0001H189.173ZM202.42 4.44058H199.812V1.62117L198.367 2.11456V4.44058H196.605V5.60359H198.367V10.7843C198.367 12.6521 199.389 13.6742 201.116 13.6742C201.574 13.6742 201.997 13.6037 202.385 13.4627V12.2292C202.068 12.335 201.751 12.4054 201.398 12.4054C200.411 12.4054 199.812 11.912 199.812 10.5728V5.60359H202.42V4.44058ZM205.412 13.5332V11.6653H203.544V13.5332H205.412ZM214.324 5.99127C213.795 4.89874 212.703 4.22913 211.293 4.22913C208.861 4.22913 207.275 6.09699 207.275 8.91641C207.275 11.7358 208.896 13.6742 211.293 13.6742C212.703 13.6742 213.83 13.0398 214.359 11.8768V13.5332H215.804V0.246699H214.324V5.99127ZM214.359 8.95165C214.359 11.1719 213.372 12.4407 211.575 12.4407C209.778 12.4407 208.756 11.1367 208.756 8.91641C208.756 6.73136 209.778 5.46262 211.575 5.46262C213.372 5.46262 214.359 6.73136 214.359 8.95165ZM225.492 4.47583H223.659L219.359 8.63447V0.246699H217.914V13.5332H219.359V9.16311L224.047 13.5332H225.95L220.945 8.81068L225.492 4.47583ZM257.017 0.669612H255.713L250.074 13.5332H251.625L253.034 10.2204H259.766L261.176 13.5332H262.691L257.017 0.669612ZM259.237 8.9869H253.563L256.383 2.39651L259.237 8.9869ZM265.682 0.246699H264.237V13.5332H265.682V0.246699ZM269.766 0.246699H268.321V13.5332H269.766V0.246699ZM284.313 4.33486C284.066 4.26437 283.784 4.22913 283.503 4.22913C282.199 4.22913 281.106 4.89874 280.648 6.13224L280.507 4.44058H279.132C279.203 5.21592 279.273 6.06175 279.273 7.0133V13.5332H280.718V8.35253C280.718 7.57719 280.965 6.90758 281.353 6.37894C281.811 5.81505 282.445 5.53311 283.326 5.53311C283.679 5.53311 284.031 5.60359 284.278 5.67408L284.313 4.33486ZM288.432 2.25554V0.599127H286.67V2.25554H288.432ZM288.256 4.44058H286.811V13.5332H288.256V4.44058ZM297.556 6.02651C296.992 4.89874 295.9 4.22913 294.455 4.22913C292.023 4.22913 290.402 6.06175 290.402 8.7402C290.402 11.4539 292.023 13.2513 294.455 13.2513C295.9 13.2513 296.992 12.5817 297.556 11.4539V13.6037C297.556 15.4011 296.675 16.3526 294.913 16.3526C293.679 16.3526 292.763 16.0707 291.6 15.4363L291.353 16.6346C292.34 17.2337 293.538 17.5509 294.913 17.5509C297.591 17.5509 299.001 16.1412 299.001 13.4627V4.44058H297.556V6.02651ZM297.556 8.7402C297.556 10.7843 296.499 12.053 294.737 12.053C292.939 12.053 291.882 10.7843 291.882 8.7402C291.882 6.69612 292.939 5.46262 294.737 5.46262C296.499 5.46262 297.556 6.69612 297.556 8.7402ZM308.9 7.82389C308.9 5.42738 307.807 4.22913 305.622 4.22913C304.283 4.22913 303.155 4.82825 302.556 5.92078V0.246699H301.111V13.5332H302.556V8.35253C302.556 6.59039 303.684 5.46262 305.34 5.46262C306.785 5.46262 307.455 6.23796 307.455 7.89437V13.5332H308.9V7.82389ZM316.085 4.44058H313.477V1.62117L312.032 2.11456V4.44058H310.27V5.60359H312.032V10.7843C312.032 12.6521 313.054 13.6742 314.781 13.6742C315.239 13.6742 315.662 13.6037 316.05 13.4627V12.2292C315.733 12.335 315.416 12.4054 315.063 12.4054C314.076 12.4054 313.477 11.912 313.477 10.5728V5.60359H316.085V4.44058ZM316.891 12.4759C317.773 13.2513 318.971 13.6742 320.521 13.6742C322.707 13.6742 324.081 12.6521 324.081 11.0662C324.081 9.79748 323.27 9.02214 321.579 8.59923L320.063 8.21156C319.077 8.0001 318.654 7.57719 318.654 6.83709C318.654 5.95602 319.394 5.42738 320.698 5.42738C321.649 5.42738 322.566 5.77981 323.411 6.48466L323.905 5.42738C323.129 4.65204 321.966 4.22913 320.698 4.22913C318.583 4.22913 317.209 5.3569 317.209 6.94282C317.209 8.14107 318.054 9.02214 319.57 9.37457L321.121 9.727C322.213 10.0089 322.671 10.3966 322.671 11.1015C322.671 11.9825 321.931 12.4759 320.592 12.4759C319.323 12.4759 318.372 12.194 317.385 11.4186L316.891 12.4759ZM338.064 4.33486C337.817 4.26437 337.535 4.22913 337.253 4.22913C335.949 4.22913 334.857 4.89874 334.399 6.13224L334.258 4.44058H332.883C332.954 5.21592 333.024 6.06175 333.024 7.0133V13.5332H334.469V8.35253C334.469 7.57719 334.716 6.90758 335.104 6.37894C335.562 5.81505 336.196 5.53311 337.077 5.53311C337.43 5.53311 337.782 5.60359 338.029 5.67408L338.064 4.33486ZM348.139 8.66971C348.139 5.92078 346.694 4.22913 344.298 4.22913C341.795 4.22913 340.033 6.16748 340.033 8.95165C340.033 11.8768 341.725 13.6742 344.58 13.6742C345.848 13.6742 347.188 13.1808 347.998 12.4407L347.505 11.3834C346.624 12.0883 345.637 12.4407 344.58 12.4407C342.571 12.4407 341.513 11.2424 341.513 8.95165H348.139V8.66971ZM341.549 8.0001C341.831 6.34369 342.782 5.39214 344.298 5.39214C345.813 5.39214 346.694 6.27321 346.835 8.0001H341.549ZM349.686 12.4759C350.567 13.2513 351.765 13.6742 353.316 13.6742C355.501 13.6742 356.875 12.6521 356.875 11.0662C356.875 9.79748 356.065 9.02214 354.373 8.59923L352.857 8.21156C351.871 8.0001 351.448 7.57719 351.448 6.83709C351.448 5.95602 352.188 5.42738 353.492 5.42738C354.443 5.42738 355.36 5.77981 356.205 6.48466L356.699 5.42738C355.924 4.65204 354.761 4.22913 353.492 4.22913C351.377 4.22913 350.003 5.3569 350.003 6.94282C350.003 8.14107 350.849 9.02214 352.364 9.37457L353.915 9.727C355.007 10.0089 355.465 10.3966 355.465 11.1015C355.465 11.9825 354.725 12.4759 353.386 12.4759C352.117 12.4759 351.166 12.194 350.179 11.4186L349.686 12.4759ZM366.527 8.66971C366.527 5.92078 365.082 4.22913 362.686 4.22913C360.184 4.22913 358.422 6.16748 358.422 8.95165C358.422 11.8768 360.113 13.6742 362.968 13.6742C364.237 13.6742 365.576 13.1808 366.386 12.4407L365.893 11.3834C365.012 12.0883 364.025 12.4407 362.968 12.4407C360.959 12.4407 359.902 11.2424 359.902 8.95165H366.527V8.66971ZM359.937 8.0001C360.219 6.34369 361.17 5.39214 362.686 5.39214C364.201 5.39214 365.082 6.27321 365.223 8.0001H359.937ZM373.677 4.33486C373.431 4.26437 373.149 4.22913 372.867 4.22913C371.563 4.22913 370.47 4.89874 370.012 6.13224L369.871 4.44058H368.497C368.567 5.21592 368.638 6.06175 368.638 7.0133V13.5332H370.083V8.35253C370.083 7.57719 370.329 6.90758 370.717 6.37894C371.175 5.81505 371.81 5.53311 372.691 5.53311C373.043 5.53311 373.396 5.60359 373.642 5.67408L373.677 4.33486ZM376.528 4.47583H374.977L378.854 13.5332H380.228L384.14 4.47583H382.695L379.594 11.9473L376.528 4.47583ZM393.158 8.66971C393.158 5.92078 391.713 4.22913 389.317 4.22913C386.814 4.22913 385.052 6.16748 385.052 8.95165C385.052 11.8768 386.744 13.6742 389.599 13.6742C390.867 13.6742 392.207 13.1808 393.017 12.4407L392.524 11.3834C391.643 12.0883 390.656 12.4407 389.599 12.4407C387.59 12.4407 386.533 11.2424 386.533 8.95165H393.158V8.66971ZM386.568 8.0001C386.85 6.34369 387.801 5.39214 389.317 5.39214C390.832 5.39214 391.713 6.27321 391.854 8.0001H386.568ZM401.788 5.99127C401.26 4.89874 400.167 4.22913 398.758 4.22913C396.326 4.22913 394.74 6.09699 394.74 8.91641C394.74 11.7358 396.361 13.6742 398.758 13.6742C400.167 13.6742 401.295 13.0398 401.824 11.8768V13.5332H403.269V0.246699H401.788V5.99127ZM401.824 8.95165C401.824 11.1719 400.837 12.4407 399.039 12.4407C397.242 12.4407 396.22 11.1367 396.22 8.91641C396.22 6.73136 397.242 5.46262 399.039 5.46262C400.837 5.46262 401.824 6.73136 401.824 8.95165ZM407 13.5332V11.6653H405.132V13.5332H407Z" fill="white"/>
</svg>
