<svg width="62" height="75" viewBox="0 0 62 75" fill="none" xmlns="http://www.w3.org/2000/svg">
<path d="M11.415 29.8999C12.2231 29.8999 12.8782 29.2448 12.8782 28.4367C12.8782 27.6286 12.2231 26.9735 11.415 26.9735C10.6069 26.9735 9.95185 27.6286 9.95185 28.4367C9.95185 29.2448 10.6069 29.8999 11.415 29.8999Z" fill="#BA7894"/>
<path d="M60.9031 26.9026C59.9821 25.8443 58.6201 25.2385 57.1671 25.2385H45.3315V22.7328C45.3315 19.0633 42.3458 16.0777 38.6763 16.0777H37.5298V15.8912C37.5298 13.2684 35.4507 11.1242 32.8539 11.0158V8.5203C33.9412 8.26583 34.8853 7.90004 35.6791 7.41857C37.1538 6.5236 37.7929 5.44212 38.0691 4.69318C38.685 3.02035 38.0372 1.10317 36.5943 0.32965C36.1837 0.111329 35.7485 0 35.2988 0C34.32 0 33.4005 0.543633 32.8453 1.43282C32.5648 1.61644 31.492 2.1702 28.7579 2.1702H21.9466C18.4867 2.1702 16.3367 4.53558 16.3367 8.34535C16.3367 10.2119 17.6814 11.7315 19.3354 11.7315C20.8087 11.7315 22.0376 10.5257 22.2878 8.94248H25.5597V11.0158C22.963 11.1242 20.8839 13.2684 20.8839 15.8912V16.0777H19.7359C16.0664 16.0777 13.0807 19.0633 13.0807 22.7328V22.8312H8.79237C6.88965 22.8312 5.34116 24.3797 5.34116 26.2824V32.8045C4.30161 33.6937 3.64086 35.0123 3.64086 36.4856V38.6356C1.66874 40.0438 0.325564 42.2935 0.15351 44.8743C0.0797726 46.0064 0.0277226 47.2065 0.00025176 48.4383C-0.0127607 49.0615 0.480269 49.5776 1.10342 49.5921C1.72513 49.6066 2.24274 49.1121 2.25575 48.4889C2.28178 47.2903 2.33238 46.125 2.40467 45.0233C2.55504 42.7446 3.96039 40.8202 5.91227 39.9094C5.92672 39.9036 5.93974 39.8963 5.95275 39.8906C6.7335 39.5363 7.59811 39.3455 8.45549 39.3455H14.3718C15.2321 39.3455 16.0924 39.5363 16.8746 39.8906C16.889 39.8963 16.902 39.9036 16.9151 39.9094C18.8886 40.8246 20.2781 42.8502 20.4227 45.0233C20.5369 46.7366 20.5933 48.4976 20.5933 50.2543C20.5933 51.0856 20.5701 51.9156 20.5528 52.7455C20.5513 52.7744 20.5513 52.8033 20.5499 52.8337C20.5398 53.1272 19.7229 53.9368 19.5523 54.2405C19.2718 54.7393 19.0448 55.2641 18.8771 55.8106C18.4954 57.0512 18.4144 58.3596 18.3913 59.6493C18.358 61.581 18.5503 63.5213 18.9768 65.4066C18.9783 65.4153 18.9797 65.4225 18.9826 65.4312C18.2698 67.3918 16.4365 68.6887 14.3342 68.6887H8.49308C6.16962 68.6887 4.13389 67.0318 3.64954 64.7488C2.8818 61.127 2.42202 57.1553 2.28178 52.9421C2.26154 52.3189 1.7367 51.8303 1.11644 51.8519C0.493281 51.8722 0.00458926 52.3941 0.0262768 53.0173C0.17086 57.362 0.647985 61.4667 1.44175 65.2172C2.14442 68.5369 5.11127 70.9471 8.49308 70.9471H14.3371C16.5348 70.9471 18.5301 69.974 19.8646 68.3706C20.5774 70.269 21.5374 72.03 22.7244 73.5857C22.9384 73.8648 23.2695 74.0296 23.6208 74.0296H44.9165C45.2679 74.0296 45.6004 73.8648 45.8129 73.5857C46.157 73.1361 46.4809 72.6676 46.786 72.1861H56.489C57.1121 72.1861 57.6182 71.6815 57.6182 71.0569V61.74L60.2973 42.3861C60.3826 41.7687 59.9518 41.199 59.3344 41.1137C58.7156 41.0284 58.1473 41.4593 58.062 42.0767L55.9193 57.5586H50.0203C49.9437 56.8169 49.7818 56.0853 49.5201 55.387C48.7162 53.2443 47.0708 51.5541 45.0076 50.6721L44.9671 50.3757L42.1564 30.0705C42.1463 29.9982 42.1405 29.9244 42.1376 29.8521C42.1376 29.8478 42.1376 29.8449 42.1376 29.8406C42.1174 29.1104 42.5092 28.4526 43.0789 28.0203C43.5372 27.6733 44.1387 27.4969 44.7098 27.4969H57.1685C57.9681 27.4969 58.7098 27.8207 59.2028 28.3861C59.6221 28.8675 59.8072 29.4661 59.7233 30.069L58.6866 37.5599C58.6013 38.1772 59.0322 38.7469 59.6496 38.8322C60.2669 38.9175 60.8366 38.4867 60.9219 37.8693L61.9586 30.377C62.1321 29.1176 61.7576 27.8829 60.9031 26.9026ZM21.9451 6.68409C21.4246 6.68409 20.7783 6.74337 20.4039 7.15543C20.1104 7.47785 20.0757 7.9304 20.0757 8.34535C20.0757 9.01044 19.6853 9.47455 19.3339 9.47455C18.9826 9.47455 18.5922 9.01044 18.5922 8.34535C18.5922 4.93608 20.693 4.42859 21.9451 4.42859H28.7564C29.809 4.42859 30.9021 4.36208 31.9474 4.13653C32.8482 3.94134 33.8559 3.65218 34.5181 2.97553C34.7595 2.72829 34.8767 2.25984 35.2974 2.25984C35.3726 2.25984 35.4463 2.28008 35.5229 2.32056C35.922 2.53455 36.188 3.2618 35.9466 3.91532C35.7528 4.4416 34.9128 5.92937 31.5657 6.47878C31.557 6.48023 31.5498 6.48023 31.5411 6.48167C30.6216 6.63204 29.6876 6.68554 28.7564 6.68554H26.6875L21.9451 6.68409ZM30.5941 8.8673V11.0086H27.8166V8.94104C27.8195 8.9902 30.5941 8.89043 30.5941 8.8673ZM25.7636 13.2655H26.6875H31.7233H32.6472C34.093 13.2655 35.2699 14.4424 35.2699 15.8883V16.0748H23.1408V15.8883C23.1408 14.4424 24.3177 13.2655 25.7636 13.2655ZM7.59955 26.2867C7.59955 26.2853 7.59955 26.2824 7.59955 26.2809C7.59955 25.6231 8.13451 25.0881 8.79237 25.0881H14.0364C14.0624 25.0881 14.087 25.091 14.1116 25.0924C14.1174 25.0924 14.1217 25.0939 14.126 25.0939C15.449 25.1908 15.2292 26.7306 15.2292 27.6559C15.2292 28.7793 15.2292 29.9027 15.2292 31.0261C15.2292 31.2589 15.2292 31.4903 15.2292 31.723C14.9386 31.6695 14.6422 31.6421 14.3458 31.6421C14.3458 31.6421 8.4844 31.6421 8.48151 31.6421C8.20825 31.6421 7.88872 31.7216 7.601 31.7129C7.5157 29.9157 7.59955 28.0882 7.59955 26.2867ZM16.931 37.489C16.931 37.1608 14.6899 37.0856 14.3718 37.0856H8.45838C7.59233 37.0856 6.72338 37.223 5.89925 37.489C5.89925 37.489 5.89925 36.4842 5.89925 36.4827C5.89925 35.0875 7.08773 33.8976 8.4844 33.8976H14.3487C15.1974 33.8976 16.0172 34.3371 16.4914 35.0398C16.9859 35.7728 16.931 36.6461 16.931 37.489ZM48.5268 68.8607C48.5441 68.8043 48.5571 68.761 48.5673 68.7335C48.9591 67.626 49.309 66.4982 49.5649 65.3502C49.9697 63.5372 50.1678 61.6706 50.1461 59.8127H55.3612V61.659V69.9249C55.3612 69.9249 48.0222 69.9249 48.0193 69.9249C48.213 69.9263 48.427 69.1904 48.5268 68.8607ZM47.3152 55.9668H41.9858C41.3627 55.9668 40.8566 56.4714 40.8566 57.096C40.8566 57.7206 41.3612 58.2252 41.9858 58.2252H47.8125C47.8169 58.2729 47.8198 58.322 47.8241 58.3698C48.1754 63.0456 47.0911 67.9209 44.3469 71.7712H24.1919C22.8083 69.8309 21.8063 67.5537 21.2265 65.0958C20.6988 62.8562 20.534 60.5183 20.7248 58.2252H37.4705C38.0936 58.2252 38.5997 57.7206 38.5997 57.096C38.5997 56.4714 38.0951 55.9668 37.4705 55.9668H21.2193C21.5114 55.2742 21.9336 54.6395 22.4714 54.0901C23.5977 52.9392 25.2069 52.2539 26.8364 52.2539H41.701C42.2172 52.2539 42.7261 52.3204 43.2162 52.4491C45.0235 52.919 46.5749 54.2115 47.3152 55.9668ZM43.0731 25.506C43.0731 25.4987 41.727 26.2043 41.5983 26.3055C39.3833 28.0709 39.9544 30.6502 40.2913 33.0865L42.6393 50.049C42.6321 50.0475 42.6249 50.0475 42.6162 50.0475C42.4875 50.0331 42.3574 50.023 42.2273 50.0143C42.1984 50.0128 42.1709 50.0099 42.142 50.0085C41.9959 50.0013 41.8485 49.9955 41.6995 49.9955H26.8364C26.1207 49.9955 25.4064 50.088 24.7139 50.2688C24.377 50.3569 24.0445 50.4654 23.722 50.5926C23.6035 50.6403 22.8502 50.902 22.8488 51.0003C22.8517 50.7488 22.8517 50.5001 22.8517 50.2514C22.8517 48.4441 22.7924 46.6339 22.6753 44.8715C22.59 43.5861 22.1967 42.3181 21.5475 41.2063C21.2526 40.7017 20.9041 40.2274 20.5109 39.7951C20.307 39.571 20.0916 39.3585 19.8646 39.159C19.7793 39.0838 19.1879 38.7021 19.1879 38.6226V36.4813C19.1879 35.0889 18.559 33.7082 17.4876 32.7973V26.2795C17.4876 26.1985 17.4833 26.119 17.4775 26.0395C17.476 26.0236 17.4746 26.0062 17.4732 25.9903C17.3633 24.6732 16.5117 23.5642 15.3377 23.0842V22.73C15.3377 20.3053 17.3112 18.3317 19.7359 18.3317H22.0116H36.3977H38.6734C41.0981 18.3317 43.0716 20.3053 43.0716 22.73C43.0731 22.7314 43.0731 25.506 43.0731 25.506Z" fill="#BA7894"/>
</svg>
