<svg width="96" height="96" viewBox="0 0 96 96" fill="none" xmlns="http://www.w3.org/2000/svg">
<path d="M66.5855 44.233L66.751 43.911L66.6719 43.5576C66.3015 41.9027 65.646 38.4582 65.7039 35.1575C65.7328 33.5057 65.9402 31.9514 66.4118 30.6949C66.8797 29.4481 67.5772 28.5673 68.556 28.1038C69.857 27.4888 71.8421 27.5258 74.147 28.1185C76.4086 28.7001 78.7884 29.7683 80.7399 30.9637C81.8498 31.6467 83.3054 32.663 84.4837 33.8936C85.6786 35.1415 86.4667 36.482 86.5044 37.8202L86.5044 37.821C86.5356 38.8947 86.0964 39.9744 85.2603 41.0554C84.4229 42.1381 83.2346 43.158 81.9015 44.0793C79.2359 45.9215 76.1579 47.2566 74.6543 47.8549L74.3245 47.9861L74.1512 48.2959L64.3272 65.8639L64.0582 66.345L64.3213 66.8294C66.3697 70.5996 66.173 75.3461 65.9133 80.6538C65.8174 82.4914 65.72 84.4352 65.72 86.4C65.72 86.7277 65.4477 87 65.12 87H10.464C10.1363 87 9.86402 86.7277 9.86402 86.4C9.86402 84.4351 9.76662 82.4913 9.67074 80.6535C9.31237 73.3229 9.06445 67.0516 14.6315 63.0521L15.048 62.7529V62.24V31.744C15.048 19.2074 25.2412 9 37.776 9C50.3115 9 60.5207 19.2083 60.536 31.7452V51.872L62.4255 52.329L66.5855 44.233ZM57.9067 61.3817L59.304 61.9867V60.464V31.744C59.304 19.8647 49.6573 10.2 37.776 10.2C25.9112 10.2 16.248 19.8642 16.248 31.744V60.464V61.9867L17.6454 61.3817C19.1362 60.7361 20.8482 60.1646 22.91 59.7306L22.9161 59.7293C26.7274 58.9023 29.5622 55.7735 30.0637 51.9046L30.1289 51.4017L29.7617 51.0519C26.273 47.7286 23.928 42.2751 23.928 36.048V35.9132C23.9486 35.6012 24.2002 35.3567 24.4535 35.3308L24.4573 35.3304C32.73 34.4543 39.8536 28.7194 43.6039 20.1614L43.604 20.1614L43.6072 20.1539C43.6743 19.9974 43.8262 19.8627 44.0099 19.812C44.1661 19.7689 44.349 19.7951 44.5139 19.9114C48.8267 23.1402 51.608 29.2861 51.608 36.048C51.608 42.277 49.2778 47.7298 45.7903 51.0519L45.4226 51.4022L45.4885 51.9057C45.9895 55.7352 48.819 58.9191 52.6404 59.7302L52.642 59.7306C54.7039 60.1646 56.4158 60.7361 57.9067 61.3817ZM48.5895 72.0811L48.8562 71.3364L48.1929 70.9055L44.7269 68.6534C44.5554 68.5372 44.4455 68.3361 44.4396 68.1461C44.4344 67.964 44.5242 67.7773 44.7007 67.6518C44.7016 67.6511 44.7026 67.6505 44.7035 67.6498L49.4647 64.3586L50.0356 63.9639L49.8655 63.291L49.1295 60.379L48.7961 59.0597L47.6366 59.7719C44.645 61.6094 41.2907 62.52 37.92 62.52C34.4754 62.52 31.0138 61.5488 27.9761 59.6198L26.812 58.8807L26.4711 60.2167L25.6871 63.2887L25.515 63.9629L26.0874 64.3586L30.8485 67.6498C30.8494 67.6504 30.8502 67.651 30.851 67.6516C31.0018 67.759 31.1069 67.9526 31.1118 68.1608C31.1009 68.3629 30.9942 68.5446 30.8352 68.6468L30.8312 68.6495L27.3592 70.9055L26.6959 71.3364L26.9626 72.0811C27.8503 74.5602 30.5877 80.6247 37.2002 85.2816L37.776 85.6871L38.3518 85.2816C44.9643 80.6247 47.7017 74.5602 48.5895 72.0811ZM25.9913 36.3263L25.1139 36.4765L25.1614 37.3655C25.3949 41.7268 26.8258 45.6789 29.0455 48.5638C31.2649 51.4485 34.3255 53.32 37.776 53.32C41.3984 53.32 44.5842 51.2639 46.8253 48.1319C49.0678 44.998 50.424 40.7211 50.424 36.048C50.424 30.6573 48.5808 25.5737 45.4063 22.2963L44.4398 21.2984L43.8003 22.5317C39.8932 30.0666 33.4037 35.0578 25.9913 36.3263ZM44.6557 53.6229L44.3 52.4085L43.2007 53.0353C41.5143 53.9969 39.6836 54.52 37.776 54.52C35.869 54.52 34.0533 53.9971 32.3808 53.0499L31.2786 52.4256L30.9272 53.6427C30.5175 55.062 29.8314 56.3451 28.9143 57.4368L28.1513 58.3451L29.1756 58.9435C34.524 62.0676 41.0952 62.101 46.4757 59.0628L47.5348 58.4647L46.7433 57.5412C45.7873 56.426 45.0834 55.0829 44.6557 53.6229ZM23.1799 60.9074L23.1799 60.9074L23.1687 60.9097C16.8587 62.2472 13.4988 64.6206 11.917 68.1622C11.147 69.8861 10.8356 71.8102 10.7379 73.8714C10.6409 75.9164 10.7526 78.1656 10.8713 80.5539L10.8731 80.5905C10.8731 80.591 10.8731 80.5915 10.8732 80.592C10.9372 81.9677 11.0006 83.38 11.0323 84.8377L11.0535 85.816H12.032H33.088H35.7021L33.7554 84.0713C27.1835 78.1814 25.4928 71.4434 25.4368 71.2084L25.4355 71.203C25.3765 70.9609 25.4762 70.7076 25.6904 70.5707L25.6955 70.5674L28.1915 68.9514L29.4435 68.1408L28.2181 67.2904L24.5127 64.719C24.5118 64.7184 24.5109 64.7178 24.51 64.7171C24.3035 64.5696 24.2078 64.3038 24.2657 64.0685C24.2658 64.0679 24.266 64.0672 24.2662 64.0665L24.7928 62.0078L25.1963 60.4306L23.6071 60.7838C23.4904 60.8097 23.378 60.8465 23.3154 60.8669C23.3089 60.8691 23.3029 60.871 23.2975 60.8728C23.2227 60.8971 23.1966 60.9041 23.1799 60.9074ZM63.6511 68.1622C62.0732 64.6295 58.7262 62.2592 52.447 60.9199C52.416 60.9094 52.3822 60.8964 52.3077 60.8694C52.2226 60.8387 52.0946 60.7943 51.9401 60.7634L50.3812 60.4516L50.7752 61.9918L51.3015 64.0492C51.3614 64.3021 51.2647 64.5538 51.0577 64.7014C51.0569 64.7019 51.0561 64.7025 51.0553 64.703L47.3499 67.2745L46.1245 68.1248L47.3765 68.9354L49.8725 70.5514L49.8776 70.5547C50.0918 70.6916 50.1916 70.9449 50.1325 71.187L50.1306 71.1947L50.1289 71.2024C50.0744 71.442 48.3858 78.1797 41.8136 84.0544L39.8608 85.8H42.48H63.52H64.4983L64.5198 84.822C64.5445 83.6954 64.5983 82.5912 64.6514 81.4988C64.6661 81.1956 64.6809 80.8933 64.6949 80.5916C64.6949 80.5912 64.6949 80.5909 64.6949 80.5905L64.6968 80.5538C64.8154 78.1655 64.9271 75.9164 64.8301 73.8714C64.7324 71.8102 64.4211 69.8861 63.6511 68.1622ZM62.3649 64.2591L63.3005 65.1947L63.9452 64.0393L72.5532 48.6153L73.0476 47.7295L72.1548 47.2479L68.5068 45.2799L67.6093 44.7957L67.1428 45.7025L60.6148 58.3905L60.504 58.6058V58.848V62.224V62.7435L60.9291 63.0422C61.4658 63.4193 61.934 63.8282 62.3649 64.2591ZM73.5294 46.6104L73.9424 46.8306L74.376 46.6546C76.6374 45.737 79.2989 44.3754 81.4054 42.9013C82.4562 42.166 83.4056 41.3772 84.0989 40.5743C84.768 39.7994 85.3292 38.861 85.3037 37.8468L85.3036 37.8422C85.2768 36.9444 84.7018 35.9556 83.8874 35.0339C83.034 34.068 81.78 33.0196 80.1077 31.9961C78.127 30.773 75.9558 29.8376 74.0309 29.3132C73.0683 29.0509 72.1441 28.8851 71.3207 28.8454C70.5168 28.8067 69.7142 28.883 69.0606 29.1919L69.0599 29.1923C68.1266 29.6344 67.6392 30.6133 67.3668 31.5494C67.0811 32.5315 66.953 33.7373 66.9282 35.0105C66.8784 37.5662 67.242 40.601 67.7906 43.1393L67.8879 43.5894L68.2932 43.8081L69.5092 44.4641L70.3905 44.9395L70.8647 44.0577L72.9127 40.2497L72.9154 40.2447C73.0692 39.9548 73.4209 39.8429 73.7233 40.0033C74.0126 40.1569 74.1247 40.5074 73.9656 40.8094C73.9653 40.8101 73.965 40.8107 73.9647 40.8113L71.9193 44.6143L71.444 45.4981L72.3294 45.9704L73.5294 46.6104Z" fill="white" stroke="#BA7894" stroke-width="2"/>
</svg>
